<svg xmlns="http://www.w3.org/2000/svg" width="93.08" height="93.09" viewBox="0 0 93.08 93.09">
  <g id="Group_405" data-name="Group 405" transform="translate(-145.92 -31.9)">
    <g id="Group_381" data-name="Group 381">
      <path id="Path_262" data-name="Path 262" d="M239,38.44v80a6.483,6.483,0,0,1-2.92,5.44,3.938,3.938,0,0,1-.51.32,6.182,6.182,0,0,1-.91.41,7.047,7.047,0,0,1-2.2.38h-80a2.437,2.437,0,0,1-.27-.01,6.515,6.515,0,0,1-6.27-6.54v-80a6.542,6.542,0,0,1,6.54-6.54h80A6.542,6.542,0,0,1,239,38.44Z" fill="#6cca7b"/>
    </g>
    <g id="Group_383" data-name="Group 383">
      <g id="Group_382" data-name="Group 382">
        <path id="Path_263" data-name="Path 263" d="M182.45,59.824s-15.919,6.088-16.731,24.106c-1.174,26.042,30.036,20,30.036,20s17.677,1.834,22.566-11.2-10.827-20.9-10.827-20.9S188.438,55.059,182.45,59.824Z"/>
      </g>
    </g>
    <g id="Group_384" data-name="Group 384">
      <path id="Path_264" data-name="Path 264" d="M233.37,124.92a5.494,5.494,0,0,1-.91.07h-80a2.437,2.437,0,0,1-.27-.01c5.57-23.82,21.27-38.73,37.72-41.31a.5.5,0,0,0,.12-.02,34.7,34.7,0,0,1,3.77-.35C212.09,82.63,229.01,103.61,233.37,124.92Z" fill="#68b6d8"/>
    </g>
    <g id="Group_385" data-name="Group 385">
      <path id="Path_265" data-name="Path 265" d="M215.9,124.99H165.4c-.08-8.07-.12-14.2-.12-14.2l17.76-17.21,8.72-8.44c.11,0,.22,0,.33.01a29.4,29.4,0,0,1,12.04,2.95c.51.26,1,.51,1.47.77a27.131,27.131,0,0,1,6.83,5.21S214.16,109.06,215.9,124.99Z" fill="#68b6d8"/>
    </g>
    <g id="Group_387" data-name="Group 387">
      <g id="Group_386" data-name="Group 386">
        <path id="Path_266" data-name="Path 266" d="M189.625,75.845l.368,9.848s1.845,3.024,8,3.294c4.587.2,6.217-1.1,6.217-1.1l-.713-4.513-.822-5.16L191.5,76.186Z" fill="#f48462"/>
      </g>
    </g>
    <g id="Group_389" data-name="Group 389">
      <g id="Group_388" data-name="Group 388">
        <path id="Path_267" data-name="Path 267" d="M189.625,75.345a3.435,3.435,0,0,0,.343,1c2.544,5.155,10.882,6.888,13.532,7.026l-.822-5.16Z"/>
      </g>
    </g>
    <g id="Group_391" data-name="Group 391">
      <g id="Group_390" data-name="Group 390">
        <path id="Path_268" data-name="Path 268" d="M204.125,54.2s6,12.953,4.1,20.344-8.617,6.382-12.653,5.049a13.265,13.265,0,0,1-5.949-3.748,5.649,5.649,0,0,1-6.292-2.074c-2.578-3.424-1.125-7.453.991-8.415s4.69.525,4.69.525l-2.074-3.757S194.9,42.629,204.125,54.2Z" fill="#f48462"/>
      </g>
    </g>
    <g id="Group_392" data-name="Group 392">
      <path id="Path_269" data-name="Path 269" d="M206.062,59.585a.627.627,0,0,1-.074-.005l-2.561-.38a.5.5,0,0,1,.147-.989l2.561.38a.5.5,0,0,1-.073.994Z"/>
    </g>
    <g id="Group_393" data-name="Group 393">
      <path id="Path_270" data-name="Path 270" d="M196.51,60.644a.5.5,0,0,1-.194-.961l2.972-1.248a.5.5,0,0,1,.388.922L196.7,60.606A.527.527,0,0,1,196.51,60.644Z"/>
    </g>
    <g id="Group_394" data-name="Group 394">
      <path id="Path_271" data-name="Path 271" d="M204.046,70.207l-.051,0a.5.5,0,0,1-.447-.548c.411-4.043-1.265-6.078-1.282-6.1a.5.5,0,0,1,.76-.651c.081.094,1.974,2.349,1.518,6.85A.5.5,0,0,1,204.046,70.207Z"/>
    </g>
    <g id="Group_395" data-name="Group 395">
      <path id="Path_272" data-name="Path 272" d="M199.962,74.585a2.267,2.267,0,0,1-.617-.087,2.857,2.857,0,0,1-1.846-2.449.5.5,0,0,1,.624-.527l3.883,1.006a.5.5,0,0,1,.273.786A3.291,3.291,0,0,1,199.962,74.585Zm-1.253-1.879a1.466,1.466,0,0,0,.911.83,1.488,1.488,0,0,0,1.251-.27Z"/>
    </g>
    <g id="Group_396" data-name="Group 396">
      <path id="Path_273" data-name="Path 273" d="M189.031,71.286a.488.488,0,0,1-.206-.045l-5.273-2.4a.5.5,0,1,1,.414-.91l5.273,2.4a.5.5,0,0,1-.208.955Z"/>
    </g>
    <g id="Group_397" data-name="Group 397">
      <path id="Path_274" data-name="Path 274" d="M184.334,72.5a.5.5,0,0,1-.352-.855l2.325-2.3a.5.5,0,1,1,.7.711l-2.325,2.3A.5.5,0,0,1,184.334,72.5Z"/>
    </g>
    <g id="Group_398" data-name="Group 398">
      <path id="Path_275" data-name="Path 275" d="M196.51,55.6a10.54,10.54,0,0,1,6.136,1.354c3.133,1.783,3.777,3.521,3.777,3.521a8.02,8.02,0,0,0-2.31-8.666c-4.248-4.062-12.4-5.188-17.1-.382s-4.41,9.048-4.41,9.048l6.406,5.4S198.907,64.09,196.51,55.6Z"/>
    </g>
    <g id="Group_399" data-name="Group 399">
      <path id="Path_276" data-name="Path 276" d="M185.875,52.723S179.831,41.244,173.7,46.1s.7,14.641,6.781,15.355S185.875,52.723,185.875,52.723Z"/>
    </g>
    <g id="Group_400" data-name="Group 400">
      <path id="Path_277" data-name="Path 277" d="M198.558,89.488a12.8,12.8,0,0,1-8.934-3.457.5.5,0,0,1,.736-.677c.211.228,5.276,5.555,14.229,1.846a.5.5,0,0,1,.382.924A16.663,16.663,0,0,1,198.558,89.488Z" fill="#f7b369"/>
    </g>
    <g id="Group_401" data-name="Group 401">
      <path id="Path_278" data-name="Path 278" d="M190.336,75.345a1.879,1.879,0,1,1-1.879-1.879A1.879,1.879,0,0,1,190.336,75.345Z" fill="#e6f4ff"/>
    </g>
    <g id="Group_402" data-name="Group 402">
      <path id="Path_279" data-name="Path 279" d="M198,66.033a.5.5,0,0,1-.5-.5v-2.3a.5.5,0,0,1,.144-.351l1.018-1.033a.5.5,0,0,1,.713.7l-.874.887v2.094A.5.5,0,0,1,198,66.033Z"/>
    </g>
    <g id="Group_403" data-name="Group 403">
      <path id="Path_280" data-name="Path 280" d="M205.552,66.033a.5.5,0,0,1-.5-.5v-2.3a.5.5,0,0,1,.144-.351l1.018-1.033a.5.5,0,0,1,.712.7l-.874.887v2.094A.5.5,0,0,1,205.552,66.033Z"/>
    </g>
    <g id="Group_404" data-name="Group 404">
      <path id="Path_281" data-name="Path 281" d="M214.216,124a.508.508,0,0,1-.207-.045.5.5,0,0,1-.247-.662c5.956-13.038-1.861-22.54-1.94-22.634a.5.5,0,0,1,.764-.646c.083.1,8.313,10.064,2.086,23.695A.5.5,0,0,1,214.216,124Z" fill="#f7b369"/>
    </g>
  </g>
</svg>
