<svg xmlns="http://www.w3.org/2000/svg" width="93.09" height="93.09" viewBox="0 0 93.09 93.09">
  <g id="Group_57" data-name="Group 57" transform="translate(-518.86 -152.3)">
    <g id="Group_23" data-name="Group 23">
      <path id="Path_18" data-name="Path 18" d="M611.95,158.85v80a6.481,6.481,0,0,1-2.65,5.24,6.385,6.385,0,0,1-3.48,1.28,2.953,2.953,0,0,1-.42.02H525.41a6.558,6.558,0,0,1-6.55-6.54v-80a6.547,6.547,0,0,1,6.55-6.55H605.4A6.547,6.547,0,0,1,611.95,158.85Z" fill="#6cca7b"/>
    </g>
    <g id="Group_24" data-name="Group 24">
      <path id="Path_19" data-name="Path 19" d="M549.83,245.39H525.41a6.516,6.516,0,0,1-2.22-.39c6.5-20.07,17.97-38.03,27.24-38.73C562.01,206.49,556.46,227.73,549.83,245.39Z" fill="#40507f"/>
    </g>
    <g id="Group_25" data-name="Group 25">
      <path id="Path_20" data-name="Path 20" d="M570.592,178.535a23.445,23.445,0,0,1,23.271,8.566c9.926,12.156,3.758,27.121-11.968,26.691s-19.382-16.5-19.382-16.5Z"/>
    </g>
    <g id="Group_26" data-name="Group 26">
      <path id="Path_21" data-name="Path 21" d="M591.81,241.44a49.821,49.821,0,0,1-7.39,3.95H544.87a49.707,49.707,0,0,1-12.28-7.56c1.01-11.27,3.15-17.05,4.96-19.66,3.81-5.49,7.52-10.78,12.79-11.9,2.81-.58,5.79-.89,9.01-1.35a64.87,64.87,0,0,1,15.5.06h.06c4.98.58,7.75,2.14,10.88,3.91C587.67,209.96,590.46,223.77,591.81,241.44Z" fill="#40507f"/>
    </g>
    <g id="Group_27" data-name="Group 27">
      <path id="Path_22" data-name="Path 22" d="M553.421,196.448c-.558,2.55-2.089,4.381-3.42,4.09s-1.957-2.594-1.4-5.144,2.089-4.381,3.42-4.09S553.979,193.9,553.421,196.448Z" fill="#92b4ea"/>
    </g>
    <g id="Group_28" data-name="Group 28">
      <path id="Path_23" data-name="Path 23" d="M605.82,245.37a2.953,2.953,0,0,1-.42.02H581.31l-8.96-40.41a23.008,23.008,0,0,1,2.5,0h.06C579.9,205.26,598.28,209.14,605.82,245.37Z" fill="#40507f"/>
    </g>
    <g id="Group_29" data-name="Group 29">
      <path id="Path_24" data-name="Path 24" d="M550.558,188.54a13.125,13.125,0,0,1-2.846-10.417c.643-4.327,2.535-5.76,2.535-5.76s-3.037-5.831,5.673-5.642,15.846-.554,19.727,6.938c2.286,4.414,1.376,14,1.376,14Z"/>
    </g>
    <g id="Group_33" data-name="Group 33">
      <g id="Group_32" data-name="Group 32">
        <g id="Group_31" data-name="Group 31">
          <g id="Group_30" data-name="Group 30">
            <path id="Path_25" data-name="Path 25" d="M569.8,195.343l-.062,10.629s-1.935,3.044-8.156,3.513c-4.634.349-6.087-2.038-6.087-2.038l1.176-9.294,11.242-2.4Z" fill="#c96f6f"/>
          </g>
        </g>
      </g>
    </g>
    <g id="Group_37" data-name="Group 37">
      <g id="Group_36" data-name="Group 36">
        <g id="Group_35" data-name="Group 35">
          <g id="Group_34" data-name="Group 34">
            <path id="Path_26" data-name="Path 26" d="M569.789,194.7a3.509,3.509,0,0,1-.315,1.024c-2.409,5.3-10.792,7.456-13.469,7.68l.667-5.246Z"/>
          </g>
        </g>
      </g>
    </g>
    <g id="Group_41" data-name="Group 41">
      <g id="Group_40" data-name="Group 40">
        <g id="Group_39" data-name="Group 39">
          <g id="Group_38" data-name="Group 38">
            <path id="Path_27" data-name="Path 27" d="M554.444,173.912s-5.656,13.294-3.5,20.711,8.92,6.181,12.961,4.7a13.424,13.424,0,0,0,5.9-3.981,5.716,5.716,0,0,0,6.3-2.3c2.5-3.546.9-7.575-1.271-8.481s-4.728.68-4.728.68l1.978-3.867S563.413,161.91,554.444,173.912Z" fill="#c96f6f"/>
          </g>
        </g>
      </g>
    </g>
    <g id="Group_45" data-name="Group 45">
      <g id="Group_44" data-name="Group 44">
        <g id="Group_43" data-name="Group 43">
          <g id="Group_42" data-name="Group 42">
            <path id="Path_28" data-name="Path 28" d="M570.1,185.246s-5.67,1.258-9.746-5-3.763-8.866-3.763-8.866L552.779,178s-.968-4.517.79-7.442,3.652-2.362,3.652-2.362l12.61,2.894,3.5,10Z"/>
          </g>
        </g>
      </g>
    </g>
    <g id="Group_46" data-name="Group 46">
      <path id="Path_29" data-name="Path 29" d="M555.211,190.8a.5.5,0,0,1-.476-.344c-.934-2.853,1.034-5.794,1.119-5.918a.5.5,0,0,1,.827.562c-.018.026-1.775,2.665-.995,5.045a.5.5,0,0,1-.32.631A.516.516,0,0,1,555.211,190.8Z"/>
    </g>
    <g id="Group_47" data-name="Group 47">
      <path id="Path_30" data-name="Path 30" d="M570.76,191.523a.5.5,0,0,1-.369-.838l3.533-3.869a.5.5,0,1,1,.738.675l-3.533,3.869A.5.5,0,0,1,570.76,191.523Z"/>
    </g>
    <g id="Group_48" data-name="Group 48">
      <path id="Path_31" data-name="Path 31" d="M574.55,190.44a.5.5,0,0,1-.067,0l-2.493-.336a.5.5,0,0,1,.133-.992l2.493.336a.5.5,0,0,1-.066,1Z"/>
    </g>
    <g id="Group_49" data-name="Group 49">
      <path id="Path_32" data-name="Path 32" d="M552.453,180.014a.5.5,0,0,1-.094-.991l2.343-.454a.506.506,0,0,1,.586.4.5.5,0,0,1-.4.586l-2.343.454A.427.427,0,0,1,552.453,180.014Z"/>
    </g>
    <g id="Group_50" data-name="Group 50">
      <path id="Path_33" data-name="Path 33" d="M562.254,181.369a.492.492,0,0,1-.217-.05l-3.893-1.878a.5.5,0,0,1,.434-.9l3.893,1.878a.5.5,0,0,1-.217.951Z"/>
    </g>
    <g id="Group_51" data-name="Group 51">
      <path id="Path_34" data-name="Path 34" d="M552.559,185.447a.51.51,0,0,1-.138-.019.5.5,0,0,1-.343-.619l.613-2.146-.577-.68a.5.5,0,0,1,.762-.648l.751.884a.5.5,0,0,1,.1.461l-.688,2.4A.5.5,0,0,1,552.559,185.447Z"/>
    </g>
    <g id="Group_52" data-name="Group 52">
      <path id="Path_35" data-name="Path 35" d="M559.257,185.96a.475.475,0,0,1-.138-.02.5.5,0,0,1-.343-.618l.612-2.139-.854-.958a.5.5,0,1,1,.746-.665l1.037,1.164a.5.5,0,0,1,.107.47l-.689,2.4A.494.494,0,0,1,559.257,185.96Z"/>
    </g>
    <g id="Group_53" data-name="Group 53">
      <path id="Path_36" data-name="Path 36" d="M557.133,194.256a1.967,1.967,0,0,1-.928-.222.5.5,0,1,1,.463-.886c1.029.536,2.922-1.1,3.5-1.719a.5.5,0,0,1,.728.685C560.662,192.368,558.83,194.256,557.133,194.256Z"/>
    </g>
    <g id="Group_54" data-name="Group 54">
      <path id="Path_37" data-name="Path 37" d="M555.9,205.25l-4.892.891s-.1,7.71,9.892,8.223c10.368.532,15.2-9.267,15.2-9.267l-9.377-1.061Z" fill="#c96f6f"/>
    </g>
    <g id="Group_55" data-name="Group 55">
      <path id="Path_38" data-name="Path 38" d="M574.988,197.044c.162,2.6-.809,4.786-2.169,4.87s-2.593-1.959-2.755-4.564.809-4.786,2.169-4.87S574.826,194.439,574.988,197.044Z" fill="#92b4ea"/>
    </g>
    <g id="Group_56" data-name="Group 56">
      <path id="Path_39" data-name="Path 39" d="M545.407,241.589a.5.5,0,0,1-.363-.157c-9.192-9.746-1.468-19.643-1.389-19.742a.5.5,0,0,1,.781.625,13.831,13.831,0,0,0,1.334,18.432.5.5,0,0,1-.363.842Z" fill="#92b4ea"/>
    </g>
  </g>
</svg>
