<svg xmlns="http://www.w3.org/2000/svg" width="93.09" height="93.09" viewBox="0 0 93.09 93.09">
  <g id="Group_80" data-name="Group 80" transform="translate(-518.86 -272.67)">
    <g id="Group_58" data-name="Group 58">
      <path id="Path_40" data-name="Path 40" d="M611.95,279.21v80a6.485,6.485,0,0,1-2.19,4.88,6.377,6.377,0,0,1-3.3,1.58,6.148,6.148,0,0,1-1.06.09H525.41a6.422,6.422,0,0,1-3.74-1.18,6.515,6.515,0,0,1-2.81-5.37v-80a6.545,6.545,0,0,1,6.55-6.54H605.4A6.545,6.545,0,0,1,611.95,279.21Z" fill="#6cca7b"/>
    </g>
    <g id="Group_59" data-name="Group 59">
      <path id="Path_41" data-name="Path 41" d="M557.271,300.124s-8.337-6.665-4.541-12.188,11.933.1,11.933.1a6.33,6.33,0,0,1,7.655-.605c4.485,2.566,5,8.825,5,8.825s4.568-.1,4.83,5.455-5.722,10.509-5.722,10.509Z"/>
    </g>
    <g id="Group_60" data-name="Group 60">
      <path id="Path_42" data-name="Path 42" d="M598.36,361.73a53.46,53.46,0,0,1-5.32,4.03H538.53l-.59-34.72c13.93-10.06,27.45-7.55,27.45-7.55s17.75-2.08,27.02,6.64a16.79,16.79,0,0,1,3.4,4.47C597.29,337.45,598.02,348.88,598.36,361.73Z" fill="#6876aa"/>
    </g>
    <g id="Group_62" data-name="Group 62">
      <g id="Group_61" data-name="Group 61">
        <path id="Path_43" data-name="Path 43" d="M571.905,315.275l.1,10.593s-1.88,3.064-8.073,3.629c-4.613.421-6.245-.607-6.245-.607l.591-5.371.583-5.238,11.166-2.572Z" fill="#f48462"/>
      </g>
    </g>
    <g id="Group_64" data-name="Group 64">
      <g id="Group_63" data-name="Group 63">
        <path id="Path_44" data-name="Path 44" d="M570.032,315.709a3.456,3.456,0,0,1-.3,1.025c-2.318,5.315-8.787,6.52-11.451,6.785l.583-5.238Z"/>
      </g>
    </g>
    <g id="Group_66" data-name="Group 66">
      <g id="Group_65" data-name="Group 65">
        <path id="Path_45" data-name="Path 45" d="M556.265,294.159s-5.428,13.337-3.163,20.694,8.987,6.02,12.99,4.485a13.373,13.373,0,0,0,5.815-4.06,5.7,5.7,0,0,0,6.241-2.389c2.435-3.573.778-7.563-1.4-8.432s-4.7.752-4.7.752l1.911-3.884S565.014,282.058,556.265,294.159Z" fill="#f48462"/>
      </g>
    </g>
    <g id="Group_67" data-name="Group 67">
      <path id="Path_46" data-name="Path 46" d="M572.491,311a.5.5,0,0,1-.3-.9l4.738-3.479a.5.5,0,0,1,.592.806l-4.738,3.479A.492.492,0,0,1,572.491,311Z"/>
    </g>
    <g id="Group_68" data-name="Group 68">
      <path id="Path_47" data-name="Path 47" d="M576.84,310.9a.505.505,0,0,1-.12-.015l-3.15-.777a.5.5,0,1,1,.241-.97l3.15.777a.5.5,0,0,1-.121.985Z"/>
    </g>
    <g id="Group_69" data-name="Group 69">
      <path id="Path_48" data-name="Path 48" d="M565.189,299.736a.514.514,0,0,1-.171-.03,19.143,19.143,0,0,0-3.839-.436.5.5,0,0,1,.016-1,19.751,19.751,0,0,1,4.165.5.5.5,0,0,1-.171.97Z"/>
    </g>
    <g id="Group_70" data-name="Group 70">
      <path id="Path_49" data-name="Path 49" d="M554.908,299.34a.5.5,0,0,1-.077-.994,9.713,9.713,0,0,1,1.891-.194.5.5,0,0,1-.077,1,10.325,10.325,0,0,0-1.657.186A.714.714,0,0,1,554.908,299.34Z"/>
    </g>
    <g id="Group_71" data-name="Group 71">
      <path id="Path_50" data-name="Path 50" d="M557.6,311.123a.5.5,0,0,1-.477-.352,8.806,8.806,0,0,1,.977-7.5.5.5,0,0,1,.807.589,7.946,7.946,0,0,0-.83,6.615.5.5,0,0,1-.477.647Z"/>
    </g>
    <g id="Group_72" data-name="Group 72">
      <path id="Path_51" data-name="Path 51" d="M555.007,304.43a.468.468,0,0,1-.127-.017.5.5,0,0,1-.357-.61l.64-2.436a.492.492,0,0,1,.61-.356.5.5,0,0,1,.357.61l-.64,2.437A.5.5,0,0,1,555.007,304.43Z"/>
    </g>
    <g id="Group_73" data-name="Group 73">
      <path id="Path_52" data-name="Path 52" d="M561.712,304.494a.468.468,0,0,1-.127-.017.5.5,0,0,1-.357-.61l.64-2.436a.5.5,0,0,1,.967.253l-.64,2.436A.5.5,0,0,1,561.712,304.494Z"/>
    </g>
    <g id="Group_74" data-name="Group 74">
      <path id="Path_53" data-name="Path 53" d="M555.179,297.163a4.472,4.472,0,0,1,3.772-2.185,5.716,5.716,0,0,1,4.2,1.8s-1.115,4.461,2.5,6.79,6.391,1.64,6.391,1.64l2.6-.955,1.874-3.827-7.62-8.051-9.81-5.055-4.928,4.564Z"/>
    </g>
    <g id="Group_75" data-name="Group 75">
      <path id="Path_54" data-name="Path 54" d="M559.642,313.6c-.127,0-.207-.006-.225-.008a.5.5,0,0,1,.084-1,3.078,3.078,0,0,0,2.973-1.711.5.5,0,0,1,.91.416A4.016,4.016,0,0,1,559.642,313.6Z"/>
    </g>
    <g id="Group_76" data-name="Group 76">
      <path id="Path_55" data-name="Path 55" d="M558.283,323.519a17.83,17.83,0,0,0-3.486,6.59c-.739,2.424-.557,6-.048,6.005s4.323-5.9,6.756-6.257,4.469,6.706,5.508,6.954,5.078-2.533,6.512-6.558a6.485,6.485,0,0,0-1.138-6.62S559.827,333.164,558.283,323.519Z" fill="#f7b369"/>
    </g>
    <g id="Group_77" data-name="Group 77">
      <path id="Path_56" data-name="Path 56" d="M548.53,365.76H525.41a6.422,6.422,0,0,1-3.74-1.18c7.48-25.92,16.27-33.54,16.27-33.54Z" fill="#6876aa"/>
    </g>
    <g id="Group_78" data-name="Group 78">
      <path id="Path_57" data-name="Path 57" d="M609.76,364.09a6.377,6.377,0,0,1-3.3,1.58,6.148,6.148,0,0,1-1.06.09H587.59L595.05,333s5.62,7.82,12,24.67C607.84,359.63,608.8,361.88,609.76,364.09Z" fill="#6876aa"/>
    </g>
    <g id="Group_79" data-name="Group 79">
      <path id="Path_58" data-name="Path 58" d="M539.731,365.2a.444.444,0,0,1-.052,0,.5.5,0,0,1-.446-.548l.982-9.541a.508.508,0,0,1,.548-.446.5.5,0,0,1,.446.548l-.981,9.541A.5.5,0,0,1,539.731,365.2Z" fill="#f7b369"/>
    </g>
  </g>
</svg>
