<svg xmlns="http://www.w3.org/2000/svg" width="93.09" height="93.09" viewBox="0 0 93.09 93.09">
  <g id="Group_120" data-name="Group 120" transform="translate(-270.23 -152.3)">
    <g id="Group_81" data-name="Group 81">
      <path id="Path_59" data-name="Path 59" d="M363.32,158.85v80a6.565,6.565,0,0,1-4.58,6.25c-.14.04-.26.07-.39.1a6.252,6.252,0,0,1-1.57.19h-80c-.17,0-.33-.01-.49-.02a6.547,6.547,0,0,1-6.06-6.52v-80a6.547,6.547,0,0,1,6.55-6.55h80A6.545,6.545,0,0,1,363.32,158.85Z" fill="#6cca7b"/>
    </g>
    <g id="Group_82" data-name="Group 82">
      <path id="Path_60" data-name="Path 60" d="M358.35,245.2a6.252,6.252,0,0,1-1.57.19H337.9c-.64-1.51-1.27-2.7-1.84-2.44q-.675.315-1.38.6a62.762,62.762,0,0,1,3.54-31.72S350.51,222.58,358.35,245.2Z" fill="#92b4ea"/>
    </g>
    <g id="Group_83" data-name="Group 83">
      <path id="Path_61" data-name="Path 61" d="M317.871,194.1h-10.92L296.1,223.237l41.684-3.1s2.473-13.017-4.342-25.258S317.871,194.1,317.871,194.1Z"/>
    </g>
    <g id="Group_86" data-name="Group 86">
      <g id="Group_85" data-name="Group 85">
        <g id="Group_84" data-name="Group 84">
          <path id="Path_62" data-name="Path 62" d="M316.53,183.25l-14.69,35.83s-7.29,13.97-14.11,26.31H276.78c-.17,0-.33-.01-.49-.02a6.547,6.547,0,0,1-6.06-6.52V220.88a18.809,18.809,0,0,1,3.32-3.01c7.85-4.56,11.51-.55,14.81-4.29,4.4-4.96-.66-8.31,1.69-14.98,2.41-6.8,7.58-6.66,12.33-9.42,4.39-2.53,4.96-8.26,5.45-10.55C308.09,177.39,316.53,183.25,316.53,183.25Z"/>
        </g>
      </g>
    </g>
    <g id="Group_87" data-name="Group 87">
      <path id="Path_63" data-name="Path 63" d="M308.284,181.8a5.606,5.606,0,0,1-.452-3.165,17.254,17.254,0,0,1,.783-3.051c1.258-3.334,4.832-9.5,13.9-8.592,12.332,1.24,10.935,23.379,10.935,23.379l-22.053-1.684Z"/>
    </g>
    <g id="Group_88" data-name="Group 88">
      <path id="Path_64" data-name="Path 64" d="M347.01,245.39H296.2c-.35-.19-.71-.39-1.06-.59-.77-.42-1.53-.88-2.27-1.37-.31-.2-.62-.4-.91-.62.93-10.37,2.96-19.74,6.89-25.06a34.65,34.65,0,0,1,11.62-10.16,28.86,28.86,0,0,1,14.94-3.51c11.8,1.57,18.23,14.6,19.74,22.95C345.43,228.57,346.49,238.54,347.01,245.39Z" fill="#f7b369"/>
    </g>
    <g id="Group_93" data-name="Group 93">
      <g id="Group_92" data-name="Group 92">
        <g id="Group_91" data-name="Group 91">
          <g id="Group_90" data-name="Group 90">
            <g id="Group_89" data-name="Group 89">
              <path id="Path_65" data-name="Path 65" d="M329.178,210.376s-.688,1.339-4.723.967c-6.211-.576-8.2-3.347-8.2-3.347l-.279-10.6,1.9.372,11.25,2.176.018,5.169Z" fill="#f48462"/>
            </g>
          </g>
        </g>
      </g>
    </g>
    <g id="Group_98" data-name="Group 98">
      <g id="Group_97" data-name="Group 97">
        <g id="Group_96" data-name="Group 96">
          <g id="Group_95" data-name="Group 95">
            <g id="Group_94" data-name="Group 94">
              <path id="Path_66" data-name="Path 66" d="M329.141,205.114c-2.956-.3-8.628-1.525-10.934-6.341a3.355,3.355,0,0,1-.335-1l11.25,2.176Z"/>
            </g>
          </g>
        </g>
      </g>
    </g>
    <g id="Group_103" data-name="Group 103">
      <g id="Group_102" data-name="Group 102">
        <g id="Group_101" data-name="Group 101">
          <g id="Group_100" data-name="Group 100">
            <g id="Group_99" data-name="Group 99">
              <path id="Path_67" data-name="Path 67" d="M330.88,175.74s5.893,13.144,3.887,20.579-8.774,6.333-12.83,4.938a13.381,13.381,0,0,1-5.956-3.856,5.7,5.7,0,0,1-6.323-2.171c-2.559-3.487-1.043-7.534,1.1-8.479s4.726.587,4.726.587l-2.046-3.816S321.71,163.948,330.88,175.74Z" fill="#f48462"/>
            </g>
          </g>
        </g>
      </g>
    </g>
    <g id="Group_104" data-name="Group 104">
      <path id="Path_68" data-name="Path 68" d="M332.82,186.906a.5.5,0,0,1-.494-.427l-.36-2.453a.508.508,0,0,1,.114-.4l.984-1.154a.5.5,0,0,1,.762.648l-.838.982.328,2.229a.5.5,0,0,1-.423.567A.44.44,0,0,1,332.82,186.906Z"/>
    </g>
    <g id="Group_105" data-name="Group 105">
      <path id="Path_69" data-name="Path 69" d="M323.229,182.778a.492.492,0,0,1-.228-.056.5.5,0,0,1-.216-.673c.923-1.793,3.185-1.327,3.279-1.3a.5.5,0,0,1-.21.978c-.064-.015-1.61-.323-2.181.785A.5.5,0,0,1,323.229,182.778Z"/>
    </g>
    <g id="Group_106" data-name="Group 106">
      <path id="Path_70" data-name="Path 70" d="M332.641,181.258a.5.5,0,0,1-.413-.218c-.1-.137-.439-.526-.768-.526-.272,0-.524.287-.688.526a.5.5,0,0,1-.826-.565,1.863,1.863,0,0,1,1.514-.962,2.171,2.171,0,0,1,1.6.963.5.5,0,0,1-.415.782Z"/>
    </g>
    <g id="Group_111" data-name="Group 111">
      <g id="Group_110" data-name="Group 110">
        <g id="Group_109" data-name="Group 109">
          <g id="Group_108" data-name="Group 108">
            <g id="Group_107" data-name="Group 107">
              <path id="Path_71" data-name="Path 71" d="M315.489,187.34s5.775.155,9.718-6.162,3.482-7.92,3.482-7.92l3.929,6.521s.878-4.521-.93-7.4S328,170.09,328,170.09l-12.515,3.127-3.3,10.031Z"/>
            </g>
          </g>
        </g>
      </g>
    </g>
    <g id="Group_112" data-name="Group 112">
      <path id="Path_72" data-name="Path 72" d="M325.52,187.492a.5.5,0,0,1-.495-.437l-.314-2.46a.5.5,0,0,1,.149-.423l1.269-1.223a.5.5,0,1,1,.693.72l-1.088,1.049.282,2.21a.5.5,0,0,1-.433.559A.328.328,0,0,1,325.52,187.492Z"/>
    </g>
    <g id="Group_113" data-name="Group 113">
      <path id="Path_73" data-name="Path 73" d="M331.5,191.765a.5.5,0,0,1-.5-.493,18.329,18.329,0,0,0-1.565-5.912.5.5,0,1,1,.908-.417A19.02,19.02,0,0,1,332,191.257a.5.5,0,0,1-.493.507Z"/>
    </g>
    <g id="Group_114" data-name="Group 114">
      <path id="Path_74" data-name="Path 74" d="M328.363,196.776c-.06,0-.12,0-.183-.007-1.74-.124-2.65-2.389-2.688-2.485a.5.5,0,0,1,.077-.5.506.506,0,0,1,.473-.177l4.517.775a.5.5,0,0,1,.354.731A3.2,3.2,0,0,1,328.363,196.776Zm-1.474-2.008a2.05,2.05,0,0,0,1.363,1,1.726,1.726,0,0,0,1.313-.545Z"/>
    </g>
    <g id="Group_115" data-name="Group 115">
      <path id="Path_75" data-name="Path 75" d="M315.009,192.9a.5.5,0,0,1-.358-.151l-3.616-3.719a.5.5,0,0,1,.717-.7l3.616,3.719a.5.5,0,0,1-.359.848Z"/>
    </g>
    <g id="Group_116" data-name="Group 116">
      <path id="Path_76" data-name="Path 76" d="M310.67,192.9a.5.5,0,0,1-.166-.971l3.233-1.136a.5.5,0,1,1,.332.943l-3.233,1.136A.508.508,0,0,1,310.67,192.9Z"/>
    </g>
    <g id="Group_117" data-name="Group 117">
      <path id="Path_77" data-name="Path 77" d="M326.016,211.932a14.856,14.856,0,0,1-10.113-3.58.5.5,0,0,1,.7-.712c.051.049,5.109,4.893,13.971,2.718a.5.5,0,0,1,.238.97A20.093,20.093,0,0,1,326.016,211.932Z" fill="#fff"/>
    </g>
    <g id="Group_118" data-name="Group 118">
      <path id="Path_78" data-name="Path 78" d="M313.2,236.94a25.72,25.72,0,0,1-4.49,8.45h-4.52l-.75-.21-.11-.03c-1.28-.39-2.56-.83-3.79-1.33-.04-.02-.08-.03-.12-.05-.88-.35-1.75-.73-2.6-1.14q-.855-.39-1.68-.84c-.77-.39-1.53-.82-2.27-1.27-.31-.18-.62-.37-.91-.57.93-9.61,2.96-18.29,6.89-23.21a33.978,33.978,0,0,1,11.62-9.41C312.9,212.71,317.13,224.68,313.2,236.94Z" fill="#92b4ea"/>
    </g>
    <g id="Group_119" data-name="Group 119">
      <path id="Path_79" data-name="Path 79" d="M306.8,209.43l-2.99,35.96h-24.8a58.436,58.436,0,0,1,5.05-11.67C292.26,218.45,306.8,209.43,306.8,209.43Z" fill="#92b4ea"/>
    </g>
  </g>
</svg>
