<svg xmlns="http://www.w3.org/2000/svg" width="93.09" height="93.325" viewBox="0 0 93.09 93.325">
  <g id="Group_227" data-name="Group 227" transform="translate(-394.54 -272.67)">
    <g id="Group_203" data-name="Group 203">
      <path id="Path_141" data-name="Path 141" d="M487.63,279.21v80a6.536,6.536,0,0,1-3.88,5.98,5.881,5.881,0,0,1-1.78.5,5.258,5.258,0,0,1-.89.07H401.09a1.086,1.086,0,0,1-.18-.01,6.307,6.307,0,0,1-3.13-.9,6.5,6.5,0,0,1-3.24-5.64v-80a6.545,6.545,0,0,1,6.55-6.54h79.99A6.545,6.545,0,0,1,487.63,279.21Z" fill="#6cca7b"/>
    </g>
    <g id="Group_204" data-name="Group 204">
      <path id="Path_142" data-name="Path 142" d="M452.33,365.76H423.09l6.26-39.6,20.49-2.81Z" fill="#92b4ea"/>
    </g>
    <g id="Group_205" data-name="Group 205">
      <path id="Path_143" data-name="Path 143" d="M433.67,323.35a9.076,9.076,0,0,0-.37,1.17s-2.64,8.64-5.77,32.83c-.37,2.86-.71,5.68-1.02,8.41h-13.2c1.7-15.91,3.96-33.68,5.82-36.23C421.75,325.95,429.88,324.05,433.67,323.35Z" fill="#f7b369"/>
    </g>
    <g id="Group_206" data-name="Group 206">
      <path id="Path_144" data-name="Path 144" d="M481.97,365.69a5.258,5.258,0,0,1-.89.07H444.95l1.61-38.92-.24-4.97c10.25-.35,17.98,3.18,27.75,16.97C478.74,345.43,480.96,355.88,481.97,365.69Z" fill="#f7b369"/>
    </g>
    <g id="Group_208" data-name="Group 208">
      <g id="Group_207" data-name="Group 207">
        <path id="Path_145" data-name="Path 145" d="M447.546,316.53l-.995,10.173s-2.121,2.745-8.119,2.646c-4.469-.073-5.928-1.228-5.928-1.228l1.122-5.092,1.1-4.965,10.978-1.313Z" fill="#a05852"/>
      </g>
    </g>
    <g id="Group_210" data-name="Group 210">
      <g id="Group_209" data-name="Group 209">
        <path id="Path_146" data-name="Path 146" d="M445.7,316.752a3.344,3.344,0,0,1-.392.953c-2.774,4.859-9.1,5.346-11.687,5.325l1.1-4.965Z"/>
      </g>
    </g>
    <g id="Group_212" data-name="Group 212">
      <g id="Group_211" data-name="Group 211">
        <path id="Path_147" data-name="Path 147" d="M434.726,294.654s-6.587,12.233-5.175,19.525,8,6.7,12,5.646a12.914,12.914,0,0,0,6-3.293,5.5,5.5,0,0,0,6.234-1.647c2.7-3.176,1.529-7.175-.47-8.234s-4.587.235-4.587.235l2.235-3.529S444.371,283.951,434.726,294.654Z" fill="#a05852"/>
      </g>
    </g>
    <g id="Group_213" data-name="Group 213">
      <path id="Path_148" data-name="Path 148" d="M448.6,312.511a.5.5,0,0,1-.251-.933l4.9-2.848a.5.5,0,0,1,.5.866l-4.9,2.848A.5.5,0,0,1,448.6,312.511Z"/>
    </g>
    <g id="Group_214" data-name="Group 214">
      <path id="Path_149" data-name="Path 149" d="M452.784,312.863a.514.514,0,0,1-.171-.03l-2.942-1.072a.5.5,0,1,1,.342-.94l2.942,1.072a.5.5,0,0,1-.171.97Z"/>
    </g>
    <g id="Group_215" data-name="Group 215">
      <path id="Path_150" data-name="Path 150" d="M442.762,300.948a.5.5,0,0,1-.424-.234,2.238,2.238,0,0,0-2.776-1.074.5.5,0,1,1-.388-.922,3.252,3.252,0,0,1,4.013,1.465.5.5,0,0,1-.158.69A.514.514,0,0,1,442.762,300.948Z"/>
    </g>
    <g id="Group_216" data-name="Group 216">
      <path id="Path_151" data-name="Path 151" d="M432.941,299.505a.5.5,0,0,1-.279-.915,2.923,2.923,0,0,1,3.306.012.5.5,0,0,1-.587.808,1.94,1.94,0,0,0-2.16.01A.5.5,0,0,1,432.941,299.505Z"/>
    </g>
    <g id="Group_217" data-name="Group 217">
      <path id="Path_152" data-name="Path 152" d="M434.307,311.087a.5.5,0,0,1-.49-.4,8.51,8.51,0,0,1,1.719-7.108.5.5,0,0,1,.739.673,7.654,7.654,0,0,0-1.476,6.244.5.5,0,0,1-.4.587A.622.622,0,0,1,434.307,311.087Z"/>
    </g>
    <g id="Group_218" data-name="Group 218">
      <path id="Path_153" data-name="Path 153" d="M432.509,304.4a.5.5,0,0,1-.178-.033.5.5,0,0,1-.289-.645l.865-2.271a.5.5,0,0,1,.934.356l-.865,2.271A.5.5,0,0,1,432.509,304.4Z"/>
    </g>
    <g id="Group_219" data-name="Group 219">
      <path id="Path_154" data-name="Path 154" d="M438.935,305.153a.5.5,0,0,1-.178-.033.5.5,0,0,1-.289-.645l.865-2.271a.5.5,0,1,1,.934.356l-.865,2.271A.5.5,0,0,1,438.935,305.153Z"/>
    </g>
    <g id="Group_220" data-name="Group 220">
      <path id="Path_155" data-name="Path 155" d="M433.374,297.424a4.315,4.315,0,0,1,3.844-1.706,5.513,5.513,0,0,1,3.846,2.163s-1.531,4.164,1.7,6.772,5.961,2.234,5.961,2.234l2.59-.647,2.194-3.478-6.478-8.512-8.525-4.445-5.2,3.869Z"/>
    </g>
    <g id="Group_221" data-name="Group 221">
      <path id="Path_156" data-name="Path 156" d="M436.421,313.693a3.739,3.739,0,0,1-.684-.056.5.5,0,0,1,.19-.981,2.958,2.958,0,0,0,3.01-1.324.5.5,0,0,1,.86.51A3.781,3.781,0,0,1,436.421,313.693Z"/>
    </g>
    <g id="Group_222" data-name="Group 222">
      <path id="Path_157" data-name="Path 157" d="M432.083,300.448a21.235,21.235,0,0,1,2.942-5.411c1.716-2.026,8.4,1.225,10.678,5.411a43.791,43.791,0,0,1,3.019,6.439s3.334-1.457,4.587-.235l1.253,1.222a43.5,43.5,0,0,0,3.117-5.112l.231-.9s.693.533,1.847-.888.258-9.975-9.3-14.13-15.271,2.408-17.513,5.409S432.083,300.448,432.083,300.448Z" fill="#a37b90"/>
    </g>
    <g id="Group_223" data-name="Group 223">
      <path id="Path_158" data-name="Path 158" d="M437.919,329.978a11.023,11.023,0,0,1-5.688-1.438.5.5,0,0,1,.544-.838,10.864,10.864,0,0,0,7.168,1.108c4.43-.73,6.249-2.888,6.267-2.909a.5.5,0,0,1,.776.631c-.081.1-2.045,2.468-6.881,3.265A13.5,13.5,0,0,1,437.919,329.978Z" fill="#fff"/>
    </g>
    <g id="Group_224" data-name="Group 224">
      <path id="Path_159" data-name="Path 159" d="M457.912,302.363a.5.5,0,0,1-.469-.327l-.789-2.137a.5.5,0,1,1,.938-.346l.789,2.137a.5.5,0,0,1-.469.673Z" fill="#ffa63b"/>
    </g>
    <g id="Group_225" data-name="Group 225">
      <path id="Path_160" data-name="Path 160" d="M419.08,365.76H401.09a1.086,1.086,0,0,1-.18-.01c3.22-9.82,10.51-29.94,18.22-36.22C426.33,323.67,422.22,349.58,419.08,365.76Z" fill="#f7b369"/>
    </g>
    <g id="Group_226" data-name="Group 226">
      <path id="Path_161" data-name="Path 161" d="M458.819,365.995a.509.509,0,0,1-.077-.006.5.5,0,0,1-.418-.427c-.152-1.116-1.369-10.922,2.494-11.671a1.325,1.325,0,0,1,1.388.439c1.459,1.883-2.189,9.809-2.936,11.379A.5.5,0,0,1,458.819,365.995Zm2.369-11.141a.892.892,0,0,0-.18.02c-1.895.367-2.17,5-1.884,8.739,1.527-3.515,2.975-7.787,2.291-8.669C461.393,354.914,461.346,354.854,461.188,354.854Z" fill="#fff"/>
    </g>
  </g>
</svg>
