<svg xmlns="http://www.w3.org/2000/svg" width="93.09" height="93.09" viewBox="0 0 93.09 93.09">
  <g id="Group_299" data-name="Group 299" transform="translate(-270.23 -272.67)">
    <g id="Group_264" data-name="Group 264">
      <path id="Path_185" data-name="Path 185" d="M363.32,279.21v80a6.575,6.575,0,0,1-3.99,6.04c-.17.07-.35.14-.53.2a6.631,6.631,0,0,1-1.85.3.969.969,0,0,1-.17.01h-80a6.408,6.408,0,0,1-1.46-.17,5.788,5.788,0,0,1-.92-.29.355.355,0,0,1-.09-.04,6.51,6.51,0,0,1-4.08-6.05v-80a6.545,6.545,0,0,1,6.55-6.54h80A6.543,6.543,0,0,1,363.32,279.21Z" fill="#6cca7b"/>
    </g>
    <g id="Group_266" data-name="Group 266">
      <g id="Group_265" data-name="Group 265">
        <path id="Path_186" data-name="Path 186" d="M328.91,365.76h-29.2l2.92-33.72,18.05-4.89,7.18,2.44Z" fill="#a37b90"/>
      </g>
    </g>
    <g id="Group_268" data-name="Group 268">
      <g id="Group_267" data-name="Group 267">
        <path id="Path_187" data-name="Path 187" d="M322.713,320.7c-4.525-.842-17.478-21.677-17.478-21.677s-6.448-7.95-4.707-9,3.4.555,3.4.555,5.768-.909,11.049-1.119c.67-.029,1.33-.048,1.971-.048a19.265,19.265,0,0,1,4.917.459c4.793,1.358,8.007,9.212,8.007,9.212s2.4-.22,3.415,3.052S327.228,321.54,322.713,320.7Z"/>
      </g>
    </g>
    <g id="Group_273" data-name="Group 273">
      <g id="Group_272" data-name="Group 272">
        <g id="Group_271" data-name="Group 271">
          <g id="Group_270" data-name="Group 270">
            <g id="Group_269" data-name="Group 269">
              <path id="Path_188" data-name="Path 188" d="M322.658,318.1l.222,10.973s-1.915,3.194-8.324,3.846c-4.774.485-6.476-.562-6.476-.562l.554-5.571.548-5.433,11.54-2.784Z" fill="#f48462"/>
            </g>
          </g>
        </g>
      </g>
    </g>
    <g id="Group_278" data-name="Group 278">
      <g id="Group_277" data-name="Group 277">
        <g id="Group_276" data-name="Group 276">
          <g id="Group_275" data-name="Group 275">
            <g id="Group_274" data-name="Group 274">
              <path id="Path_189" data-name="Path 189" d="M320.722,318.57a3.589,3.589,0,0,1-.3,1.065c-2.344,5.531-9.033,6.848-11.79,7.152l.548-5.433Z"/>
            </g>
          </g>
        </g>
      </g>
    </g>
    <g id="Group_283" data-name="Group 283">
      <g id="Group_282" data-name="Group 282">
        <g id="Group_281" data-name="Group 281">
          <g id="Group_280" data-name="Group 280">
            <g id="Group_279" data-name="Group 279">
              <path id="Path_190" data-name="Path 190" d="M306.23,296.392s-5.481,13.874-3.056,21.472,9.374,6.14,13.505,4.507a13.853,13.853,0,0,0,5.981-4.268,5.9,5.9,0,0,0,6.439-2.542c2.484-3.727.726-7.843-1.54-8.72s-4.862.829-4.862.829l1.938-4.044S315.164,283.763,306.23,296.392Z" fill="#f48462"/>
            </g>
          </g>
        </g>
      </g>
    </g>
    <g id="Group_285" data-name="Group 285">
      <g id="Group_284" data-name="Group 284">
        <path id="Path_191" data-name="Path 191" d="M306.23,296.392s4.27-1.719,6.093-.213,3.97,14.225,10.375,11.491,3.091-10.883,3.091-10.883S309.68,282.993,306.23,296.392Z"/>
      </g>
    </g>
    <g id="Group_287" data-name="Group 287">
      <g id="Group_286" data-name="Group 286">
        <path id="Path_192" data-name="Path 192" d="M308.72,325.95s-1.54,19.39-3.54,39.81h-28.4a6.408,6.408,0,0,1-1.46-.17c-.32-.07,11.483-26.257,20.11-32.336A63.75,63.75,0,0,1,308.72,325.95Z" fill="#40507f"/>
      </g>
    </g>
    <g id="Group_289" data-name="Group 289">
      <g id="Group_288" data-name="Group 288">
        <path id="Path_193" data-name="Path 193" d="M356.95,365.75a.969.969,0,0,1-.17.01H324.71c-1.1-17.44-1.9-40.19-1.9-40.19S351.36,327.12,356.95,365.75Z" fill="#40507f"/>
      </g>
    </g>
    <g id="Group_290" data-name="Group 290">
      <path id="Path_194" data-name="Path 194" d="M323.189,313.818a.5.5,0,0,1-.36-.848l3.457-3.579a.5.5,0,0,1,.719.7l-3.457,3.579A.493.493,0,0,1,323.189,313.818Z"/>
    </g>
    <g id="Group_291" data-name="Group 291">
      <path id="Path_195" data-name="Path 195" d="M327.864,312.944a.461.461,0,0,1-.126-.017l-2.984-.779a.5.5,0,0,1-.357-.609.492.492,0,0,1,.609-.357l2.984.779a.5.5,0,0,1-.126.983Z"/>
    </g>
    <g id="Group_292" data-name="Group 292">
      <path id="Path_196" data-name="Path 196" d="M305.325,302.652a.489.489,0,0,1-.3-.1.5.5,0,0,1-.1-.689c.037-.05.95-1.237,3.228-.907a.5.5,0,0,1,.424.566.511.511,0,0,1-.566.424c-1.658-.244-2.263.488-2.288.521A.508.508,0,0,1,305.325,302.652Z"/>
    </g>
    <g id="Group_293" data-name="Group 293">
      <path id="Path_197" data-name="Path 197" d="M315.661,302.783a.5.5,0,0,1-.32-.116,3.07,3.07,0,0,0-2.594-.629.5.5,0,1,1-.267-.963,4.074,4.074,0,0,1,3.5.824.5.5,0,0,1-.321.884Z"/>
    </g>
    <g id="Group_294" data-name="Group 294">
      <path id="Path_198" data-name="Path 198" d="M305.78,308.121a.508.508,0,0,1-.5-.54l.207-2.555a.509.509,0,0,1,.538-.458.5.5,0,0,1,.458.538l-.207,2.555A.5.5,0,0,1,305.78,308.121Z"/>
    </g>
    <g id="Group_295" data-name="Group 295">
      <path id="Path_199" data-name="Path 199" d="M313.336,308.433a.508.508,0,0,1-.5-.54l.207-2.555a.507.507,0,0,1,.538-.458.5.5,0,0,1,.458.538l-.207,2.555A.5.5,0,0,1,313.336,308.433Z"/>
    </g>
    <g id="Group_296" data-name="Group 296">
      <path id="Path_200" data-name="Path 200" d="M307.614,314.219a.5.5,0,0,1-.456-.3,6.5,6.5,0,0,1,.907-6.626.5.5,0,0,1,.762.647,5.5,5.5,0,0,0-.758,5.57.5.5,0,0,1-.252.66A.469.469,0,0,1,307.614,314.219Z"/>
    </g>
    <g id="Group_297" data-name="Group 297">
      <path id="Path_201" data-name="Path 201" d="M310.6,316.515a.5.5,0,0,1,0-1,2.49,2.49,0,0,0,2.207-1.38.5.5,0,0,1,.922.386A3.5,3.5,0,0,1,310.6,316.515Z"/>
    </g>
    <g id="Group_298" data-name="Group 298">
      <path id="Path_202" data-name="Path 202" d="M312.542,333.956a19.288,19.288,0,0,1-4.408-.485.5.5,0,0,1-.353-.612.506.506,0,0,1,.611-.354c.093.025,9.188,2.362,14.415-3.77a.5.5,0,0,1,.762.648C320.368,333.139,315.86,333.956,312.542,333.956Z" fill="#92b4ea"/>
    </g>
  </g>
</svg>
