<svg xmlns="http://www.w3.org/2000/svg" width="93.09" height="93.09" viewBox="0 0 93.09 93.09">
  <g id="Group_145" data-name="Group 145" transform="translate(-21.6 -152.3)">
    <g id="Group_121" data-name="Group 121">
      <path id="Path_80" data-name="Path 80" d="M114.69,158.85v80a6.821,6.821,0,0,1-.14,1.36,6.551,6.551,0,0,1-6.4,5.18h-80a5.53,5.53,0,0,1-.71-.04,6.537,6.537,0,0,1-5.84-6.5v-80a6.547,6.547,0,0,1,6.55-6.55h80A6.545,6.545,0,0,1,114.69,158.85Z" fill="#6cca7b"/>
    </g>
    <g id="Group_122" data-name="Group 122">
      <path id="Path_81" data-name="Path 81" d="M101.86,245.39H28.15a5.53,5.53,0,0,1-.71-.04c5.29-13.52,12.96-25.83,20.11-28.71,0,0,10.57-2.9,11.16-2.92,16.83-.65,25.79,6.03,26.31,6.43A83.136,83.136,0,0,1,101.86,245.39Z" fill="#a37b90"/>
    </g>
    <g id="Group_123" data-name="Group 123">
      <path id="Path_82" data-name="Path 82" d="M61.815,190.966s3.812-.942,5.6-3.136,2.081-7.621,2.081-7.621,6.9,3.591,8.717,3.192,5.37-8.527,2.975-12.038-7.242.836-7.242.836a4.984,4.984,0,0,0-6.294-3.845c-6.221,1.374-7.83,7.691-7.83,7.691s-.418-6.855-4.746-3.845-2.77,10.867-2.77,10.867-3.462,1.5-2.77,4.764,5.367,6.4,5.367,6.4Z"/>
    </g>
    <g id="Group_125" data-name="Group 125">
      <g id="Group_124" data-name="Group 124">
        <path id="Path_83" data-name="Path 83" d="M61.2,200.806l-.907,10.336s1.669,3.129,7.887,4.133c4.632.748,6.36-.136,6.36-.136l-.191-5.288-.193-5.157-11.1-3.327Z" fill="#f48462"/>
      </g>
    </g>
    <g id="Group_127" data-name="Group 127">
      <g id="Group_126" data-name="Group 126">
        <path id="Path_84" data-name="Path 84" d="M63.058,201.366a3.281,3.281,0,0,0,.224,1.023c1.942,5.359,8.391,7.008,11.064,7.462l-.193-5.157Z"/>
      </g>
    </g>
    <g id="Group_129" data-name="Group 129">
      <g id="Group_128" data-name="Group 128">
        <path id="Path_85" data-name="Path 85" d="M78.607,181.329s4.48,13.419,1.633,20.438-9.541,5.222-13.473,3.43a13.427,13.427,0,0,1-5.573-4.389,5.873,5.873,0,0,1-6.129-2.789c-2.192-3.667-.215-7.442,2.053-8.131s4.7,1.078,4.7,1.078l-1.638-3.932S70.676,168.874,78.607,181.329Z" fill="#f48462"/>
      </g>
    </g>
    <g id="Group_130" data-name="Group 130">
      <path id="Path_86" data-name="Path 86" d="M60.965,196.6a.5.5,0,0,1-.318-.115l-4.528-3.743a.5.5,0,1,1,.637-.771l4.528,3.743a.5.5,0,0,1-.319.886Z"/>
    </g>
    <g id="Group_131" data-name="Group 131">
      <path id="Path_87" data-name="Path 87" d="M69.28,187.021a.5.5,0,0,1-.344-.137.5.5,0,0,1-.019-.707,3.464,3.464,0,0,1,4.38-.721.5.5,0,0,1-.533.846,2.478,2.478,0,0,0-3.122.564A.5.5,0,0,1,69.28,187.021Z"/>
    </g>
    <g id="Group_132" data-name="Group 132">
      <path id="Path_88" data-name="Path 88" d="M79.624,186.5a.494.494,0,0,1-.343-.137,2.129,2.129,0,0,0-2.272-.411.5.5,0,0,1-.418-.909,3.127,3.127,0,0,1,3.377.592.5.5,0,0,1-.344.865Z"/>
    </g>
    <g id="Group_133" data-name="Group 133">
      <path id="Path_89" data-name="Path 89" d="M76.065,196.185a.5.5,0,0,1-.463-.689c1.4-3.447-.2-4.688-.267-4.739a.5.5,0,0,1-.109-.7.5.5,0,0,1,.69-.117c.1.067,2.33,1.7.612,5.93A.5.5,0,0,1,76.065,196.185Z"/>
    </g>
    <g id="Group_134" data-name="Group 134">
      <path id="Path_90" data-name="Path 90" d="M79.139,191.461a.5.5,0,0,1-.491-.406l-.462-2.425a.5.5,0,1,1,.982-.188l.462,2.425a.5.5,0,0,1-.491.594Z"/>
    </g>
    <g id="Group_135" data-name="Group 135">
      <path id="Path_91" data-name="Path 91" d="M71.385,191.461a.5.5,0,0,1-.491-.406l-.462-2.425a.5.5,0,1,1,.982-.188l.462,2.425a.5.5,0,0,1-.491.594Z"/>
    </g>
    <g id="Group_136" data-name="Group 136">
      <path id="Path_92" data-name="Path 92" d="M73.939,200.083a4.14,4.14,0,0,1-3.816-2.528.5.5,0,0,1,.934-.357,3.15,3.15,0,0,0,2.883,1.886.5.5,0,0,1,.011,1Z"/>
    </g>
    <g id="Group_137" data-name="Group 137">
      <path id="Path_93" data-name="Path 93" d="M61.815,190.966s4.088-.711,5.6-4.055a14.442,14.442,0,0,0,1.289-6.353,6.947,6.947,0,0,0,5.644,1.883c3.58-.379,4.563-4.057,4.563-4.057l-3.281-3.845s-13.479,2.844-13.814,2.425-5.239,8.324-5.239,8.324Z"/>
    </g>
    <g id="Group_138" data-name="Group 138">
      <path id="Path_94" data-name="Path 94" d="M88.64,245.39H39.47c1.89-12.09,4.9-25.99,6.35-27.09.35-.25,1.76-1.66,1.76-1.66a19.967,19.967,0,0,1,6.79-1.96c.15-.02.28-.05.43-.06.22-.03.44-.05.66-.07.2-.02.41-.03.61-.05.29-.02.57-.04.82-.05,1.11-.07,1.81-.06,1.81-.06a.6.6,0,0,1,.01-.08c.05-.71.49-6.24,1.85-6.12,1.44.14,4.94,2.8,8.64,3.14a34.894,34.894,0,0,0,6.43-.04c.75,0,.9,4.38.9,4.38a24.619,24.619,0,0,1,8.49,5.76.415.415,0,0,1,.11.12c.17.2.57.69,1.16,1.44a12.364,12.364,0,0,1,1.17,1.99C88.45,227.12,88.73,235.4,88.64,245.39Z" fill="#a37b90"/>
    </g>
    <g id="Group_139" data-name="Group 139">
      <path id="Path_95" data-name="Path 95" d="M66.552,215.938a28.107,28.107,0,0,1-8.024-1.677.5.5,0,0,1,.346-.938c.06.021,6.034,2.2,9.189,1.465a.5.5,0,0,1,.226.975A7.781,7.781,0,0,1,66.552,215.938Z" fill="#fff"/>
    </g>
    <g id="Group_140" data-name="Group 140">
      <path id="Path_96" data-name="Path 96" d="M56.576,196.51a.5.5,0,0,1-.236-.941l2.6-1.389a.5.5,0,0,1,.472.882l-2.6,1.389A.5.5,0,0,1,56.576,196.51Z"/>
    </g>
    <g id="Group_141" data-name="Group 141">
      <path id="Path_97" data-name="Path 97" d="M71.946,194.279H69.639a2.871,2.871,0,0,1-2.867-2.868v-2.393a1.377,1.377,0,0,1,1.375-1.375h5.29a1.378,1.378,0,0,1,1.376,1.375v2.393A2.87,2.87,0,0,1,71.946,194.279Zm-3.8-5.635a.375.375,0,0,0-.375.375v2.393a1.869,1.869,0,0,0,1.867,1.868h2.307a1.869,1.869,0,0,0,1.867-1.868v-2.393a.376.376,0,0,0-.376-.375Z" fill="#6876aa"/>
    </g>
    <g id="Group_142" data-name="Group 142">
      <path id="Path_98" data-name="Path 98" d="M80.9,194.4h-1.57a2.671,2.671,0,0,1-2.668-2.668v-2.666a1.3,1.3,0,0,1,1.3-1.3h4.3a1.3,1.3,0,0,1,1.3,1.3v2.666A2.671,2.671,0,0,1,80.9,194.4Zm-2.936-5.635a.3.3,0,0,0-.3.3v2.666a1.67,1.67,0,0,0,1.668,1.668H80.9a1.67,1.67,0,0,0,1.668-1.668v-2.666a.3.3,0,0,0-.3-.3Z" fill="#6876aa"/>
    </g>
    <g id="Group_143" data-name="Group 143">
      <path id="Path_99" data-name="Path 99" d="M73.535,191.461a.5.5,0,0,1-.229-.944,5.261,5.261,0,0,1,4.043-.208.5.5,0,1,1-.377.927,4.3,4.3,0,0,0-3.212.172A.5.5,0,0,1,73.535,191.461Z" fill="#6876aa"/>
    </g>
    <g id="Group_144" data-name="Group 144">
      <path id="Path_100" data-name="Path 100" d="M57.864,190.249a.5.5,0,0,1-.186-.964,12.675,12.675,0,0,1,9.816.016.5.5,0,0,1-.442.9,11.9,11.9,0,0,0-9,.015A.517.517,0,0,1,57.864,190.249Z" fill="#6876aa"/>
    </g>
  </g>
</svg>
