<svg xmlns="http://www.w3.org/2000/svg" width="93.08" height="93.09" viewBox="0 0 93.08 93.09">
  <g id="Group_178" data-name="Group 178" transform="translate(-145.92 -272.67)">
    <g id="Group_146" data-name="Group 146">
      <path id="Path_101" data-name="Path 101" d="M239,279.21v80a6.549,6.549,0,0,1-5.99,6.53c-.18.01-.36.02-.55.02h-80a6.45,6.45,0,0,1-1.33-.14,6.546,6.546,0,0,1-3.08-1.58,6.515,6.515,0,0,1-2.13-4.83v-80a6.542,6.542,0,0,1,6.54-6.54h80A6.543,6.543,0,0,1,239,279.21Z" fill="#6cca7b"/>
    </g>
    <g id="Group_147" data-name="Group 147">
      <path id="Path_102" data-name="Path 102" d="M224.69,347.6s7.622-2.294,5.3-13.438c-2-9.615-14.59-11.078-14.59-11.078a14.682,14.682,0,0,0,.924-13.138c-2.917-6.906-6.979-8.217-6.979-8.217a14.043,14.043,0,0,0-4.066-9.991c-4.412-4.393-10.424.209-10.424.209s-11.4-2.483-18.442,3.573-4.312,16.479-4.312,16.479-11.2,4.045-13.928,15.887,4.337,18.2,4.337,18.2Z"/>
    </g>
    <g id="Group_148" data-name="Group 148">
      <path id="Path_103" data-name="Path 103" d="M233.01,365.74c-.18.01-.36.02-.55.02h-80a6.45,6.45,0,0,1-1.33-.14,6.546,6.546,0,0,1-3.08-1.58c3.9-9.16,10.7-22.4,17.96-27.87,12.04-9.1,15.2-10.75,34.41-8.72C212.76,328.75,225.8,343.54,233.01,365.74Z" fill="#f7b369"/>
    </g>
    <g id="Group_152" data-name="Group 152">
      <g id="Group_151" data-name="Group 151">
        <g id="Group_150" data-name="Group 150">
          <g id="Group_149" data-name="Group 149">
            <path id="Path_104" data-name="Path 104" d="M186.306,321.158l-.492,7.784a11.805,11.805,0,0,0,6.545,2.938c5.069.366,7.1-2.311,7.1-2.311l.436-10.251Z" fill="#f48462"/>
          </g>
        </g>
      </g>
    </g>
    <g id="Group_156" data-name="Group 156">
      <g id="Group_155" data-name="Group 155">
        <g id="Group_154" data-name="Group 154">
          <g id="Group_153" data-name="Group 153">
            <path id="Path_105" data-name="Path 105" d="M186.307,321.147s2.1,7.552,8.42,5.97c4.561-1.142,5.106-6.969,5.106-6.969Z"/>
          </g>
        </g>
      </g>
    </g>
    <g id="Group_160" data-name="Group 160">
      <g id="Group_159" data-name="Group 159">
        <g id="Group_158" data-name="Group 158">
          <g id="Group_157" data-name="Group 157">
            <path id="Path_106" data-name="Path 106" d="M203.257,299.838s1.919,14.081-2.979,20.5-10.676,4.137-13.2,1.962a11.928,11.928,0,0,1-3.928-6.77s-4.947.7-6.358-3.376c-1.482-4.285,1.751-7.5,4.209-7.564s2.719.4,2.719.4l-.471-4.516S199.037,284.757,203.257,299.838Z" fill="#f48462"/>
          </g>
        </g>
      </g>
    </g>
    <g id="Group_164" data-name="Group 164">
      <g id="Group_163" data-name="Group 163">
        <g id="Group_162" data-name="Group 162">
          <g id="Group_161" data-name="Group 161">
            <path id="Path_107" data-name="Path 107" d="M200.54,306.238s7.591-2.757,7.851,3.018c.3,6.69-7.653,6.312-7.653,6.312Z" fill="#f48462"/>
          </g>
        </g>
      </g>
    </g>
    <g id="Group_165" data-name="Group 165">
      <path id="Path_108" data-name="Path 108" d="M182.5,305.362s2.526,1.221,8.205-2.468,4.355-8.492,4.355-8.492,7.207,5.086,8.559,11.022,3.164-13.605-5.33-13.691S176.811,296.467,182.5,305.362Z"/>
    </g>
    <g id="Group_166" data-name="Group 166">
      <path id="Path_109" data-name="Path 109" d="M203.926,312.493a.489.489,0,0,1-.275-.083.5.5,0,0,1-.142-.692l2.709-4.105a.5.5,0,0,1,.835.55l-2.709,4.105A.5.5,0,0,1,203.926,312.493Z"/>
    </g>
    <g id="Group_167" data-name="Group 167">
      <path id="Path_110" data-name="Path 110" d="M182.584,311.462a.5.5,0,0,1-.346-.139l-3.6-3.447a.5.5,0,0,1,.692-.723l3.6,3.447a.5.5,0,0,1-.346.862Z"/>
    </g>
    <g id="Group_168" data-name="Group 168">
      <path id="Path_111" data-name="Path 111" d="M179.064,311.865a.5.5,0,0,1-.278-.916l2.321-1.553a.5.5,0,0,1,.555.832l-2.321,1.553A.494.494,0,0,1,179.064,311.865Z"/>
    </g>
    <g id="Group_169" data-name="Group 169">
      <path id="Path_112" data-name="Path 112" d="M206.877,311.38c-.037,0-2.15-.153-2.15-.153a.5.5,0,0,1,.073-1l2.114.152a.5.5,0,0,1-.037,1Z"/>
    </g>
    <g id="Group_170" data-name="Group 170">
      <path id="Path_113" data-name="Path 113" d="M195.181,314.292a.506.506,0,0,1-.109-.012.5.5,0,0,1-.379-.6,12.664,12.664,0,0,0-.3-6.471.5.5,0,0,1,.937-.349,13.431,13.431,0,0,1,.342,7.036A.5.5,0,0,1,195.181,314.292Z"/>
    </g>
    <g id="Group_171" data-name="Group 171">
      <path id="Path_114" data-name="Path 114" d="M193.3,318.148c-1.664,0-2.611-1.982-2.65-2.066a.5.5,0,0,1,.051-.51.508.508,0,0,1,.474-.2l4.772.7a.5.5,0,0,1,.261.869,4.974,4.974,0,0,1-2.9,1.207Zm-1.146-1.619a1.658,1.658,0,0,0,1.146.619,2.914,2.914,0,0,0,1.17-.28Z"/>
    </g>
    <g id="Group_172" data-name="Group 172">
      <path id="Path_115" data-name="Path 115" d="M200.139,303.063a.5.5,0,0,1-.337-.131,3.886,3.886,0,0,0-2.188-.708.5.5,0,0,1-.494-.506.487.487,0,0,1,.5-.494,4.846,4.846,0,0,1,2.853.97.5.5,0,0,1-.338.869Z"/>
    </g>
    <g id="Group_173" data-name="Group 173">
      <path id="Path_116" data-name="Path 116" d="M189.228,303.535a.5.5,0,0,1-.348-.858,4.85,4.85,0,0,1,2.822-1.058.515.515,0,0,1,.519.479.5.5,0,0,1-.479.521,3.882,3.882,0,0,0-2.165.774A.5.5,0,0,1,189.228,303.535Z"/>
    </g>
    <g id="Group_174" data-name="Group 174">
      <path id="Path_117" data-name="Path 117" d="M192.995,332.731c-5.537,0-7.677-3.118-7.766-3.251a.5.5,0,0,1,.832-.554c.077.113,1.963,2.806,6.934,2.806h.068c5.585-.026,6.712-3.064,6.757-3.194a.505.505,0,0,1,.634-.31.5.5,0,0,1,.313.63c-.052.157-1.357,3.845-7.7,3.874Z" fill="#40507f"/>
    </g>
    <g id="Group_175" data-name="Group 175">
      <path id="Path_118" data-name="Path 118" d="M203.618,305.424s6.681-8.474,1.664-13.692-19.468-7.825-26.295,2.033c-4.84,6.989,3.512,11.6,3.512,11.6l9.282-9.523,3.278-1.437,5.481,1.437Z"/>
    </g>
    <g id="Group_176" data-name="Group 176">
      <path id="Path_119" data-name="Path 119" d="M189.64,308.347a.5.5,0,0,1-.5-.483l-.081-2.4a.5.5,0,0,1,.2-.418l1.542-1.148a.5.5,0,0,1,.6.8l-1.333.992.072,2.142a.5.5,0,0,1-.482.517A.059.059,0,0,0,189.64,308.347Z"/>
    </g>
    <g id="Group_177" data-name="Group 177">
      <path id="Path_120" data-name="Path 120" d="M198.436,308.347a.5.5,0,0,1-.5-.483l-.081-2.4a.5.5,0,0,1,.2-.418l1.542-1.148a.5.5,0,0,1,.6.8l-1.333.992.072,2.142a.5.5,0,0,1-.482.517A.056.056,0,0,0,198.436,308.347Z"/>
    </g>
  </g>
</svg>
