<svg xmlns="http://www.w3.org/2000/svg" width="93.09" height="93.09" viewBox="0 0 93.09 93.09">
  <g id="Group_352" data-name="Group 352" transform="translate(-518.86 -31.9)">
    <g id="Group_328" data-name="Group 328">
      <path id="Path_221" data-name="Path 221" d="M611.95,38.44v80a6.536,6.536,0,0,1-3.88,5.98,6.425,6.425,0,0,1-2.67.57H525.41a6.228,6.228,0,0,1-1.15-.1,6.393,6.393,0,0,1-2.16-.81,6.5,6.5,0,0,1-3.24-5.64v-80a6.545,6.545,0,0,1,6.55-6.54H605.4A6.545,6.545,0,0,1,611.95,38.44Z" fill="#6cca7b"/>
    </g>
    <g id="Group_329" data-name="Group 329">
      <path id="Path_222" data-name="Path 222" d="M567.964,47.468s8.965-1.342,15.388,2.685S586.867,64.9,586.867,64.9s10.291,8.059,10.85,16.9-7.494,12.089-7.494,12.089L569,90.645Z"/>
    </g>
    <g id="Group_330" data-name="Group 330">
      <path id="Path_223" data-name="Path 223" d="M550.45,84.96l-3.3,40.03H525.41a6.228,6.228,0,0,1-1.15-.1c1.73-7.8,6.42-19.87,10.43-26.45C541.73,86.91,550.45,84.96,550.45,84.96Z" fill="#f7b369"/>
    </g>
    <g id="Group_331" data-name="Group 331">
      <path id="Path_224" data-name="Path 224" d="M585.61,124.99H541.29l6.2-38.59s10.49-5.7,18.7-5.41a22.3,22.3,0,0,1,5.05.78c6.35,1.61,11.96,5.58,13.59,9.47C585.54,92.91,585.7,107.02,585.61,124.99Z" fill="#f7b369"/>
    </g>
    <g id="Group_332" data-name="Group 332">
      <path id="Path_225" data-name="Path 225" d="M605.03,124.99H571.07l-1.91-18.58,1.85-25.43S596.33,88.33,605.03,124.99Z" fill="#f7b369"/>
    </g>
    <g id="Group_333" data-name="Group 333">
      <path id="Path_226" data-name="Path 226" d="M571.062,82.215a43.262,43.262,0,0,1-8.029,8.709c-4.325,3.272-6.3,3.658-6.3,3.658l.276-10.551Z" fill="#92b4ea"/>
    </g>
    <g id="Group_335" data-name="Group 335">
      <g id="Group_334" data-name="Group 334">
        <path id="Path_227" data-name="Path 227" d="M570.848,71.346l.18,10.454s-1.833,3.038-7.941,3.64c-4.549.449-6.168-.553-6.168-.553l.544-5.306L558,74.407l11-2.619Z" fill="#f48462"/>
      </g>
    </g>
    <g id="Group_337" data-name="Group 337">
      <g id="Group_336" data-name="Group 336">
        <path id="Path_228" data-name="Path 228" d="M569,71.788a3.422,3.422,0,0,1-.286,1.014c-2.249,5.262-8.625,6.5-11.252,6.78L558,74.408Z"/>
      </g>
    </g>
    <g id="Group_339" data-name="Group 339">
      <g id="Group_338" data-name="Group 338">
        <path id="Path_229" data-name="Path 229" d="M555.26,50.619s-5.261,13.2-2.972,20.447S561.2,76.942,565.14,75.4a13.2,13.2,0,0,0,5.71-4.049,5.622,5.622,0,0,0,6.142-2.4c2.377-3.544.714-7.47-1.442-8.312s-4.634.776-4.634.776l1.858-3.847S563.807,38.613,555.26,50.619Z" fill="#f48462"/>
      </g>
    </g>
    <g id="Group_340" data-name="Group 340">
      <path id="Path_230" data-name="Path 230" d="M571.392,67.131a.5.5,0,0,1-.3-.9l4.651-3.468a.5.5,0,0,1,.6.8l-4.651,3.468A.5.5,0,0,1,571.392,67.131Z"/>
    </g>
    <g id="Group_341" data-name="Group 341">
      <path id="Path_231" data-name="Path 231" d="M575.684,67a.466.466,0,0,1-.116-.014l-3.115-.745a.5.5,0,1,1,.233-.973l3.115.745a.5.5,0,0,1-.117.987Z"/>
    </g>
    <g id="Group_342" data-name="Group 342">
      <path id="Path_232" data-name="Path 232" d="M564.1,56.065a.5.5,0,0,1-.391-.188c-1.3-1.629-2.144-1.35-2.154-1.347a.512.512,0,0,1-.642-.278.49.49,0,0,1,.244-.639c.15-.071,1.531-.613,3.333,1.64a.5.5,0,0,1-.39.812Z"/>
    </g>
    <g id="Group_343" data-name="Group 343">
      <path id="Path_233" data-name="Path 233" d="M553.956,55.749a.5.5,0,0,1-.325-.88,6.17,6.17,0,0,1,2.627-1.443.5.5,0,0,1,.181.984,5.344,5.344,0,0,0-2.157,1.219A.506.506,0,0,1,553.956,55.749Z"/>
    </g>
    <g id="Group_344" data-name="Group 344">
      <path id="Path_234" data-name="Path 234" d="M555.887,65.664a.5.5,0,0,1-.493-.424,10.067,10.067,0,0,1,1.1-6.421.5.5,0,0,1,.851.526,9.229,9.229,0,0,0-.964,5.744.5.5,0,0,1-.418.57A.7.7,0,0,1,555.887,65.664Z"/>
    </g>
    <g id="Group_345" data-name="Group 345">
      <path id="Path_235" data-name="Path 235" d="M554.089,60.771a.478.478,0,0,1-.123-.016.5.5,0,0,1-.361-.608l.563-2.216-.648-1.159a.5.5,0,0,1,.873-.489l.746,1.333a.5.5,0,0,1,.048.368l-.613,2.409A.5.5,0,0,1,554.089,60.771Z"/>
    </g>
    <g id="Group_346" data-name="Group 346">
      <path id="Path_236" data-name="Path 236" d="M561.682,60.786a.478.478,0,0,1-.123-.016.5.5,0,0,1-.361-.608l.552-2.169-.912-1.155a.5.5,0,1,1,.785-.62l1.065,1.349a.5.5,0,0,1,.092.434l-.613,2.409A.5.5,0,0,1,561.682,60.786Z"/>
    </g>
    <g id="Group_347" data-name="Group 347">
      <path id="Path_237" data-name="Path 237" d="M570.915,61.718,569,64.247s-4.081-5.658-4.07-8.812,0-4.25,0-4.25a24.154,24.154,0,0,1-7.469,1.4c-3.37-.1-5.495-1.9-5.272-3.49s2.215-6.481,12.74-4.886S575.656,58.092,570.915,61.718Z"/>
    </g>
    <g id="Group_348" data-name="Group 348">
      <path id="Path_238" data-name="Path 238" d="M551.71,96.313a.5.5,0,0,1-.036-1c.107-.008,10.745-.956,19.146-13.926a.5.5,0,0,1,.839.544c-8.688,13.413-19.459,14.346-19.913,14.379Z" fill="#fff"/>
    </g>
    <g id="Group_349" data-name="Group 349">
      <path id="Path_239" data-name="Path 239" d="M556.749,94.437a.5.5,0,0,1-.5-.513l.3-11.334a.545.545,0,0,1,.513-.487.5.5,0,0,1,.487.513l-.3,11.334A.5.5,0,0,1,556.749,94.437Z" fill="#fff"/>
    </g>
    <g id="Group_350" data-name="Group 350">
      <path id="Path_240" data-name="Path 240" d="M557.379,69.315a1.257,1.257,0,0,1-.607-.142.5.5,0,0,1,.473-.881c.3.159,1.333-.353,2.06-.921a.5.5,0,1,1,.615.788A5.033,5.033,0,0,1,557.379,69.315Z"/>
    </g>
    <g id="Group_351" data-name="Group 351">
      <path id="Path_241" data-name="Path 241" d="M538.383,124.538a.5.5,0,0,1-.475-.343c-3.147-9.519,2.707-19.082,2.957-19.484a.5.5,0,0,1,.85.529c-.06.1-5.855,9.574-2.857,18.642a.5.5,0,0,1-.317.631A.52.52,0,0,1,538.383,124.538Z" fill="#fff"/>
    </g>
  </g>
</svg>
