<svg xmlns="http://www.w3.org/2000/svg" width="93.08" height="93.09" viewBox="0 0 93.08 93.09">
  <g id="Group_327" data-name="Group 327" transform="translate(-145.92 -152.3)">
    <g id="Group_300" data-name="Group 300">
      <path id="Path_203" data-name="Path 203" d="M239,158.85v80a6.537,6.537,0,0,1-6.4,6.54H152.46a5.53,5.53,0,0,1-.71-.04,6.37,6.37,0,0,1-3.11-1.2,6.506,6.506,0,0,1-2.72-5.3v-80a6.545,6.545,0,0,1,6.54-6.55h80A6.545,6.545,0,0,1,239,158.85Z" fill="#6cca7b"/>
    </g>
    <g id="Group_301" data-name="Group 301">
      <path id="Path_204" data-name="Path 204" d="M213.012,212.257s-.821-44.408-16.529-46.009-17.569,9.437-17.569,9.437-3.915,1.4-4.708,7.366-1.164,29.789-1.164,29.789l35.47,2.03Z"/>
    </g>
    <g id="Group_302" data-name="Group 302">
      <path id="Path_205" data-name="Path 205" d="M232.6,245.39H173.79a37.5,37.5,0,0,1-4.54-1.1c-.04-.02-.08-.05-.12-.07-.21-.11-.42-.23-.62-.35-.32-.18-.65-.37-.96-.57-3.12-12.39-4.36-23.6-.48-28.16a4.091,4.091,0,0,1,.68-.7,26.9,26.9,0,0,1,2.91-2.18.542.542,0,0,0,.11-.06,34.437,34.437,0,0,1,5.45-2.87.11.11,0,0,1,.06-.03c12.38-5.16,28.342-3.089,37.042.551C218.382,211.951,227.87,226.68,232.6,245.39Z" fill="#6876aa"/>
    </g>
    <g id="Group_306" data-name="Group 306">
      <g id="Group_305" data-name="Group 305">
        <g id="Group_304" data-name="Group 304">
          <g id="Group_303" data-name="Group 303">
            <path id="Path_206" data-name="Path 206" d="M185.611,196.349v10.907s1.967,3.136,8.348,3.655c4.753.386,6.258-2.055,6.258-2.055l-1.151-9.545-11.522-2.535Z" fill="#f48462"/>
          </g>
        </g>
      </g>
    </g>
    <g id="Group_310" data-name="Group 310">
      <g id="Group_309" data-name="Group 309">
        <g id="Group_308" data-name="Group 308">
          <g id="Group_307" data-name="Group 307">
            <path id="Path_207" data-name="Path 207" d="M185.628,195.684a3.612,3.612,0,0,0,.317,1.053c2.44,5.449,11.029,7.716,13.774,7.962l-.653-5.387Z"/>
          </g>
        </g>
      </g>
    </g>
    <g id="Group_314" data-name="Group 314">
      <g id="Group_313" data-name="Group 313">
        <g id="Group_312" data-name="Group 312">
          <g id="Group_311" data-name="Group 311">
            <path id="Path_208" data-name="Path 208" d="M201.5,174.449s5.724,13.676,3.467,21.274-9.191,6.289-13.328,4.749a13.77,13.77,0,0,1-6.028-4.121,5.865,5.865,0,0,1-6.449-2.4c-2.543-3.654-.878-7.779,1.355-8.695s4.847.727,4.847.727l-2.007-3.98S192.369,162.08,201.5,174.449Z" fill="#f48462"/>
          </g>
        </g>
      </g>
    </g>
    <g id="Group_315" data-name="Group 315">
      <path id="Path_209" data-name="Path 209" d="M200.614,191.767a.484.484,0,0,1-.158-.026.5.5,0,0,1-.316-.632c.816-2.445-.975-5.168-.993-5.2a.5.5,0,0,1,.831-.557c.085.127,2.084,3.154,1.11,6.069A.5.5,0,0,1,200.614,191.767Z"/>
    </g>
    <g id="Group_316" data-name="Group 316">
      <path id="Path_210" data-name="Path 210" d="M184.653,192.41a.5.5,0,0,1-.371-.165l-3.6-3.991a.5.5,0,0,1,.742-.67l3.6,3.991a.5.5,0,0,1-.036.706A.493.493,0,0,1,184.653,192.41Z"/>
    </g>
    <g id="Group_317" data-name="Group 317">
      <path id="Path_211" data-name="Path 211" d="M180.771,191.276a.5.5,0,0,1-.064-1l2.561-.33a.5.5,0,0,1,.128.992l-2.561.33C180.814,191.274,180.792,191.276,180.771,191.276Z"/>
    </g>
    <g id="Group_318" data-name="Group 318">
      <path id="Path_212" data-name="Path 212" d="M203.508,180.71a.49.49,0,0,1-.1-.01l-2.4-.48a.5.5,0,0,1,.2-.98l2.4.48a.5.5,0,0,1-.1.99Z"/>
    </g>
    <g id="Group_319" data-name="Group 319">
      <path id="Path_213" data-name="Path 213" d="M193.444,182.042a.5.5,0,0,1-.215-.952l3.217-1.529a.5.5,0,1,1,.43.9l-3.217,1.529A.517.517,0,0,1,193.444,182.042Z"/>
    </g>
    <g id="Group_320" data-name="Group 320">
      <path id="Path_214" data-name="Path 214" d="M202.4,186.285a.5.5,0,0,1-.481-.365l-.691-2.471a.5.5,0,0,1,.1-.461l.776-.9a.5.5,0,0,1,.758.652l-.6.7.619,2.213a.5.5,0,0,1-.483.635Z"/>
    </g>
    <g id="Group_321" data-name="Group 321">
      <path id="Path_215" data-name="Path 215" d="M194.563,186.771a.5.5,0,0,1-.481-.365l-.691-2.471a.5.5,0,0,1,.11-.47l1.07-1.188a.5.5,0,1,1,.743.67l-.886.983.617,2.206a.5.5,0,0,1-.347.616A.483.483,0,0,1,194.563,186.771Z"/>
    </g>
    <g id="Group_322" data-name="Group 322">
      <path id="Path_216" data-name="Path 216" d="M205.419,179.307a34.36,34.36,0,0,0-6.411-.653l-2.643.1-1.073-4.251.014,4.637a14.188,14.188,0,0,0-3.713,1.286,14.5,14.5,0,0,0-3.073,2.156L186.768,179l.738,4.5-2.142,2.479-3.232-3.027,2.07-6.275s4.878-6.81,5.254-6.892,7.41-.469,7.41-.469,6.051,2.365,6.2,2.564S205.419,179.307,205.419,179.307Z"/>
    </g>
    <g id="Group_323" data-name="Group 323">
      <path id="Path_217" data-name="Path 217" d="M194.806,211.071a17.268,17.268,0,0,1-9.934-3.31.5.5,0,0,1,.568-.822c8.357,5.775,15.246,1.827,15.314,1.787a.5.5,0,0,1,.509.862A13.885,13.885,0,0,1,194.806,211.071Z" fill="#fff"/>
    </g>
    <g id="Group_324" data-name="Group 324">
      <path id="Path_218" data-name="Path 218" d="M184.94,245.39H152.46a5.53,5.53,0,0,1-.71-.04c4.12-12.92,10.3-26.4,13.57-29.38a34.184,34.184,0,0,1,3.59-2.89.3.3,0,0,0,.11-.06,21.982,21.982,0,0,1,5.45-2.86.11.11,0,0,1,.06-.03C174.55,210.13,184.94,245.39,184.94,245.39Z" fill="#6876aa"/>
    </g>
    <g id="Group_325" data-name="Group 325">
      <path id="Path_219" data-name="Path 219" d="M199.185,195.925a5.512,5.512,0,0,1-2.85-1.433.5.5,0,0,1-.142-.558.472.472,0,0,1,.477-.322l4.446.081a.5.5,0,0,1,.35.847,7.535,7.535,0,0,1-1.667,1.24A1.269,1.269,0,0,1,199.185,195.925Zm-.861-1.283c.444.231.829.351,1,.258.137-.074.268-.152.392-.232Z"/>
    </g>
    <g id="Group_326" data-name="Group 326">
      <path id="Path_220" data-name="Path 220" d="M215.829,243.339a.515.515,0,0,1-.18-.033.5.5,0,0,1-.286-.646c3.045-7.886-1.921-15.952-1.971-16.033a.5.5,0,0,1,.847-.532c.217.346,5.286,8.564,2.057,16.924A.5.5,0,0,1,215.829,243.339Z" fill="#fff"/>
    </g>
  </g>
</svg>
