<svg xmlns="http://www.w3.org/2000/svg" width="93.09" height="93.09" viewBox="0 0 93.09 93.09">
  <g id="Group_22" data-name="Group 22" transform="translate(-270.23 -31.9)">
    <g id="Group_2" data-name="Group 2">
      <path id="Path_1" data-name="Path 1" d="M363.32,38.44v80a6.541,6.541,0,0,1-3.43,5.76,6.415,6.415,0,0,1-3.11.79h-80a6.1,6.1,0,0,1-1.36-.15,6.365,6.365,0,0,1-2.77-1.32,6.5,6.5,0,0,1-2.42-5.08v-80a6.545,6.545,0,0,1,6.55-6.54h80A6.542,6.542,0,0,1,363.32,38.44Z" fill="#6cca7b"/>
    </g>
    <g id="Group_3" data-name="Group 3">
      <path id="Path_2" data-name="Path 2" d="M353.29,124.99H276.78a6.1,6.1,0,0,1-1.36-.15c4.38-21.65,12.88-35.94,20.45-38.46,9.32-3.11,26.52-.62,34.61.84,2.99.54,5.74,1.07,7.74,3.35C343.07,96.07,350.77,109.93,353.29,124.99Z" fill="#40507f"/>
    </g>
    <g id="Group_4" data-name="Group 4">
      <path id="Path_3" data-name="Path 3" d="M339.78,124.99H286.82c.15-15.73,1.12-29.72,3.93-33.19a18.868,18.868,0,0,1,5.12-4.38,30.112,30.112,0,0,1,12.35-3.71,27.366,27.366,0,0,1,3.48-.12s2.83.15,6.63.72c1.05.18,2.11.36,3.22.58,6.47,1.27,11.9,2.46,13.36,3.19C338.24,89.75,339.44,108.45,339.78,124.99Z" fill="#40507f"/>
    </g>
    <g id="Group_5" data-name="Group 5">
      <path id="Path_4" data-name="Path 4" d="M325.354,59.165l-19.27,14.59s-10.5-10.54-6.23-16.56c2.65-3.75,8.01-5.55,11.68-6.38.42-.09.81-.17,1.18-.24,1.58-.31,2.64-.4,2.64-.4l.01.06c.67-.25,7.35-5.08,11.01-3.48C331.4,48.945,325.354,59.165,325.354,59.165Z"/>
    </g>
    <g id="Group_7" data-name="Group 7">
      <g id="Group_6" data-name="Group 6">
        <path id="Path_5" data-name="Path 5" d="M308.083,76.034l-.635,10.354s1.685,3.091,7.711,3.955c4.49.644,6.137-.279,6.137-.279l-.307-5.282-.306-5.152-10.789-3.077Z" fill="#a05852"/>
      </g>
    </g>
    <g id="Group_9" data-name="Group 9">
      <g id="Group_8" data-name="Group 8">
        <path id="Path_6" data-name="Path 6" d="M309.893,76.553a3.4,3.4,0,0,0,.24,1.017c2,5.314,8.265,6.818,10.856,7.211l-.306-5.152Z"/>
      </g>
    </g>
    <g id="Group_11" data-name="Group 11">
      <g id="Group_10" data-name="Group 10">
        <path id="Path_7" data-name="Path 7" d="M324.439,56.172s4.637,13.315,2.053,20.4S317.4,82,313.564,80.3a13.091,13.091,0,0,1-5.482-4.263,5.578,5.578,0,0,1-5.982-2.65c-2.2-3.616-.381-7.435,1.793-8.175s4.559.972,4.559.972l-1.673-3.894S316.492,43.9,324.439,56.172Z" fill="#a05852"/>
      </g>
    </g>
    <g id="Group_12" data-name="Group 12">
      <path id="Path_8" data-name="Path 8" d="M307.75,71.837a.5.5,0,0,1-.316-.113l-4.458-3.641a.5.5,0,1,1,.633-.775l4.458,3.641a.5.5,0,0,1-.317.888Z"/>
    </g>
    <g id="Group_13" data-name="Group 13">
      <path id="Path_9" data-name="Path 9" d="M303.5,71.519a.5.5,0,0,1-.094-.99l3.121-.6a.5.5,0,1,1,.19.981l-3.121.6A.529.529,0,0,1,303.5,71.519Z"/>
    </g>
    <g id="Group_14" data-name="Group 14">
      <path id="Path_10" data-name="Path 10" d="M315.47,61.743a.5.5,0,0,1-.376-.829,3.293,3.293,0,0,1,4.247-.823.5.5,0,0,1-.527.85,2.272,2.272,0,0,0-2.969.631A.5.5,0,0,1,315.47,61.743Z"/>
    </g>
    <g id="Group_15" data-name="Group 15">
      <path id="Path_11" data-name="Path 11" d="M325.529,61.318a.5.5,0,0,1-.342-.135,1.97,1.97,0,0,0-2.171-.357.5.5,0,0,1-.452-.892,2.972,2.972,0,0,1,3.307.518.5.5,0,0,1,.023.707A.494.494,0,0,1,325.529,61.318Z"/>
    </g>
    <g id="Group_16" data-name="Group 16">
      <path id="Path_12" data-name="Path 12" d="M323.182,71.061a.519.519,0,0,1-.172-.03.5.5,0,0,1-.3-.642c1.314-3.593-.4-5.675-.47-5.762a.5.5,0,0,1,.759-.651c.089.1,2.175,2.588.65,6.757A.5.5,0,0,1,323.182,71.061Z"/>
    </g>
    <g id="Group_17" data-name="Group 17">
      <path id="Path_13" data-name="Path 13" d="M325.177,66.29a.5.5,0,0,1-.488-.4l-.5-2.414a.443.443,0,0,1-.011-.1.5.5,0,0,1,.4-.489.505.505,0,0,1,.591.388l.5,2.415a.443.443,0,0,1,.011.1.5.5,0,0,1-.4.489A.727.727,0,0,1,325.177,66.29Z"/>
    </g>
    <g id="Group_18" data-name="Group 18">
      <path id="Path_14" data-name="Path 14" d="M317.613,66.465a.5.5,0,0,1-.488-.4l-.5-2.414a.5.5,0,0,1,.979-.2l.5,2.414a.5.5,0,0,1-.388.591A.506.506,0,0,1,317.613,66.465Z"/>
    </g>
    <g id="Group_19" data-name="Group 19">
      <path id="Path_15" data-name="Path 15" d="M325.35,59.164a4.38,4.38,0,0,0-3.578-2.326,5.6,5.6,0,0,0-4.2,1.55s.866,4.419-2.788,6.514-6.332,1.282-6.332,1.282l-2.492-1.064-1.64-3.837,7.857-7.49,9.847-4.449,4.59,4.711Z"/>
    </g>
    <g id="Group_20" data-name="Group 20">
      <path id="Path_16" data-name="Path 16" d="M320.324,75.026a3.987,3.987,0,0,1-3.718-2.448.5.5,0,1,1,.929-.368,3,3,0,0,0,2.811,1.815.5.5,0,0,1,.034,1Z"/>
    </g>
    <g id="Group_21" data-name="Group 21">
      <path id="Path_17" data-name="Path 17" d="M318.471,91.147c-6.779,0-11.938-4.695-12.188-4.926a.5.5,0,0,1,.68-.734c.067.063,6.82,6.2,14.681,4.279a.5.5,0,1,1,.237.971A14.33,14.33,0,0,1,318.471,91.147Z" fill="#fff"/>
    </g>
  </g>
</svg>
