<svg xmlns="http://www.w3.org/2000/svg" width="93.08" height="93.09" viewBox="0 0 93.08 93.09">
  <g id="Group_202" data-name="Group 202" transform="translate(-394.55 -152.3)">
    <g id="Group_179" data-name="Group 179">
      <path id="Path_121" data-name="Path 121" d="M487.63,158.85v80a6.551,6.551,0,0,1-5.49,6.45,1.153,1.153,0,0,1-.26.03,5.156,5.156,0,0,1-.79.06h-80a6.325,6.325,0,0,1-2.18-.38,6.224,6.224,0,0,1-1.5-.76,6.511,6.511,0,0,1-2.86-5.4v-80a6.545,6.545,0,0,1,6.54-6.55h80A6.545,6.545,0,0,1,487.63,158.85Z" fill="#6cca7b"/>
    </g>
    <g id="Group_180" data-name="Group 180">
      <path id="Path_122" data-name="Path 122" d="M457.6,231.7l-21.38,13.69H401.3c4.01-18.33,14.32-34.69,29.67-39.02a16.057,16.057,0,0,1,9.35-.03C453.31,210.45,457.6,231.7,457.6,231.7Z" fill="#a37b90"/>
    </g>
    <g id="Group_181" data-name="Group 181">
      <path id="Path_123" data-name="Path 123" d="M481.88,245.33a5.156,5.156,0,0,1-.79.06H417.76c-.73-.37-1.46-.76-2.17-1.17,1.14-14.32,2.28-25.76,3.17-28.12,1.76-4.71,13.54-8.02,21.56-9.76,4.29-.92,7.51-1.39,7.51-1.39s11.32.71,23.81,13.46C479.25,226.18,481.45,236.91,481.88,245.33Z" fill="#a37b90"/>
    </g>
    <g id="Group_182" data-name="Group 182">
      <path id="Path_124" data-name="Path 124" d="M430.337,171.545s-4.85,5.486-2.184,11.534,5.525-10.987,5.525-10.987Z"/>
    </g>
    <g id="Group_184" data-name="Group 184">
      <g id="Group_183" data-name="Group 183">
        <path id="Path_125" data-name="Path 125" d="M446.647,196.194l.184,10.881s-1.909,3.161-8.266,3.787c-4.736.466-6.42-.578-6.42-.578l.568-5.522.561-5.385,11.452-2.723Z" fill="#f48462"/>
      </g>
    </g>
    <g id="Group_186" data-name="Group 186">
      <g id="Group_185" data-name="Group 185">
        <path id="Path_126" data-name="Path 126" d="M444.725,196.653c-.022.3,1.751,1.233,1.583,1.638-2.343,5.477-11.071,8.23-13.806,8.521l.772-7.436Z"/>
      </g>
    </g>
    <g id="Group_188" data-name="Group 188">
      <g id="Group_187" data-name="Group 187">
        <path id="Path_127" data-name="Path 127" d="M432.4,172.088a10.264,10.264,0,0,0-3.157,4.714c-1.423,4.2-4.292,14.005-2.412,20.017,2.444,7.812,9.487,6.35,13.676,4.694a14,14,0,0,0,6.068-4.353,5.923,5.923,0,0,0,6.529-2.578c2.523-3.815.749-8.049-1.545-8.96s-4.927.827-4.927.827l1.971-4.143S440.675,165.355,432.4,172.088Z" fill="#f48462"/>
      </g>
    </g>
    <g id="Group_189" data-name="Group 189">
      <path id="Path_128" data-name="Path 128" d="M447.214,191.786a.5.5,0,0,1-.3-.9l3.974-2.962a.5.5,0,1,1,.6.8l-3.974,2.961A.493.493,0,0,1,447.214,191.786Z"/>
    </g>
    <g id="Group_190" data-name="Group 190">
      <path id="Path_129" data-name="Path 129" d="M451.682,191.649a.465.465,0,0,1-.116-.014l-3.243-.776a.5.5,0,1,1,.233-.973l3.243.776a.5.5,0,0,1-.117.987Z"/>
    </g>
    <g id="Group_191" data-name="Group 191">
      <path id="Path_130" data-name="Path 130" d="M429.2,184.813a.477.477,0,0,1-.123-.016.5.5,0,0,1-.361-.608l.639-2.507a.5.5,0,1,1,.968.247l-.639,2.507A.5.5,0,0,1,429.2,184.813Z"/>
    </g>
    <g id="Group_192" data-name="Group 192">
      <path id="Path_131" data-name="Path 131" d="M436.1,185.179a.477.477,0,0,1-.123-.016.5.5,0,0,1-.361-.608l.639-2.507a.5.5,0,1,1,.968.247l-.639,2.507A.5.5,0,0,1,436.1,185.179Z"/>
    </g>
    <g id="Group_193" data-name="Group 193">
      <path id="Path_132" data-name="Path 132" d="M428.807,179.34a.5.5,0,0,1-.053-1l2.064-.224a.5.5,0,0,1,.108.994l-2.065.224A.485.485,0,0,1,428.807,179.34Z"/>
    </g>
    <g id="Group_194" data-name="Group 194">
      <path id="Path_133" data-name="Path 133" d="M438.171,181a.5.5,0,0,1-.193-.038l-2.807-1.175a.5.5,0,0,1,.386-.923l2.807,1.175a.5.5,0,0,1-.193.961Z"/>
    </g>
    <g id="Group_195" data-name="Group 195">
      <path id="Path_134" data-name="Path 134" d="M446.634,186.45s-1.128,4.529-2,3.977-1.681-7.082-1.033-10.005,1.119-4.393,1.119-4.393-11.887-1.057-15.02-3.882,3.486-4.647,10.255-3.365,9.439,3.826,9.439,3.826,4.242-.632,5.827,1.955-2.023,12.419-2.023,12.419S452.134,184.515,446.634,186.45Z"/>
    </g>
    <g id="Group_196" data-name="Group 196">
      <path id="Path_135" data-name="Path 135" d="M423.964,191.128s3.322-3.678,5.012-3.126,2.3,3.024,2.3,3.024,2.006-2.778,4.219-2,6.958,1.071,7.008,1.839-1.323,1.042-1.323,1.042S430.016,193.2,423.964,191.128Z"/>
    </g>
    <g id="Group_197" data-name="Group 197">
      <path id="Path_136" data-name="Path 136" d="M446.634,186.45s-.2,7.344-.057,10.711-9.216,8.618-15.681,5.718-4.692-11.371-4.692-11.371l5.761.532a11.034,11.034,0,0,1,2.838-1.063,7.422,7.422,0,0,1,3.521.512Z"/>
    </g>
    <g id="Group_198" data-name="Group 198">
      <path id="Path_137" data-name="Path 137" d="M432.87,193.717a.457.457,0,0,1-.047-.912,3.716,3.716,0,0,0,2.687-1.655.457.457,0,1,1,.818.409,4.567,4.567,0,0,1-3.41,2.155A.372.372,0,0,1,432.87,193.717Z"/>
    </g>
    <g id="Group_199" data-name="Group 199">
      <path id="Path_138" data-name="Path 138" d="M431.076,190.254a.5.5,0,0,1-.447-.276c-1.618-3.233.707-6.632.807-6.775a.5.5,0,0,1,.82.571c-.021.03-2.082,3.06-.733,5.756a.5.5,0,0,1-.224.671A.491.491,0,0,1,431.076,190.254Z"/>
    </g>
    <g id="Group_200" data-name="Group 200">
      <path id="Path_139" data-name="Path 139" d="M435.59,211.4a25.369,25.369,0,0,1-5.876-.678.5.5,0,0,1,.251-.968c.112.028,11.289,2.83,16.866-3.777a.5.5,0,0,1,.764.645C444.325,210.5,439.433,211.4,435.59,211.4Z" fill="#f7b369"/>
    </g>
    <g id="Group_201" data-name="Group 201">
      <path id="Path_140" data-name="Path 140" d="M429.9,193.2s1.232,1.423,2.365,1.423,2.127-1.931,2.127-1.931Z" fill="#f27e64"/>
    </g>
  </g>
</svg>
