<svg xmlns="http://www.w3.org/2000/svg" width="93.08" height="93.09" viewBox="0 0 93.08 93.09">
  <g id="Group_263" data-name="Group 263" transform="translate(-21.64 -273.3)">
    <g id="Group_228" data-name="Group 228">
      <path id="Path_162" data-name="Path 162" d="M114.72,279.84v80a6.538,6.538,0,0,1-2.65,5.27,6.406,6.406,0,0,1-1.63.88c-.02.01-.04.01-.06.02a6.439,6.439,0,0,1-2.2.38h-80a6.45,6.45,0,0,1-1.33-.14,6.228,6.228,0,0,1-1.9-.72,6.525,6.525,0,0,1-3.31-5.69v-80a6.543,6.543,0,0,1,6.54-6.54h80A6.543,6.543,0,0,1,114.72,279.84Z" fill="#6cca7b"/>
    </g>
    <g id="Group_229" data-name="Group 229">
      <path id="Path_163" data-name="Path 163" d="M110.44,365.99c-.02.01-.04.01-.06.02a6.439,6.439,0,0,1-2.2.38H75.46c-.44-.07-.68-.1-.68-.1L62.3,339.55l-4.93-12.83,17.81-2.08s9.55-7.13,25.49,16.74C103.79,346.06,107.67,356.56,110.44,365.99Z" fill="#f7b369"/>
    </g>
    <g id="Group_230" data-name="Group 230">
      <path id="Path_164" data-name="Path 164" d="M95.631,366.285H55.1l6.318-42.667,14.023,3.392s12.826,4.152,17.766,24.72A110.1,110.1,0,0,1,95.631,366.285Z" fill="#a37b90"/>
    </g>
    <g id="Group_231" data-name="Group 231">
      <path id="Path_165" data-name="Path 165" d="M80.883,310.5a98.54,98.54,0,0,0-.348-14.879c-.557-4.176-8.018-6.479-8.018-6.479s-14.13.633-16,5.04-.376,11.052-.376,11.052Z"/>
    </g>
    <g id="Group_235" data-name="Group 235">
      <g id="Group_234" data-name="Group 234">
        <g id="Group_233" data-name="Group 233">
          <g id="Group_232" data-name="Group 232">
            <path id="Path_166" data-name="Path 166" d="M61.838,315.148l-.091,10.235s1.82,2.959,7.8,3.5c4.457.4,5.89-1.876,5.89-1.876l-1-8.966-10.791-2.475Z" fill="#fca397"/>
          </g>
        </g>
      </g>
    </g>
    <g id="Group_239" data-name="Group 239">
      <g id="Group_238" data-name="Group 238">
        <g id="Group_237" data-name="Group 237">
          <g id="Group_236" data-name="Group 236">
            <path id="Path_167" data-name="Path 167" d="M61.859,314.524a3.343,3.343,0,0,0,.289.99c2.245,5.133,10.285,7.333,12.859,7.586l-.568-5.061Z"/>
          </g>
        </g>
      </g>
    </g>
    <g id="Group_243" data-name="Group 243">
      <g id="Group_242" data-name="Group 242">
        <g id="Group_241" data-name="Group 241">
          <g id="Group_240" data-name="Group 240">
            <path id="Path_168" data-name="Path 168" d="M76.929,294.73S82.186,307.611,80,314.722s-8.677,5.825-12.546,4.346a12.925,12.925,0,0,1-5.623-3.917,5.5,5.5,0,0,1-6.032-2.3c-2.356-3.45-.759-7.307,1.344-8.148s4.542.722,4.542.722l-1.85-3.751S68.464,283.047,76.929,294.73Z" fill="#c96f6f"/>
          </g>
        </g>
      </g>
    </g>
    <g id="Group_247" data-name="Group 247">
      <g id="Group_246" data-name="Group 246">
        <g id="Group_245" data-name="Group 245">
          <g id="Group_244" data-name="Group 244">
            <path id="Path_169" data-name="Path 169" d="M61.691,305.422s5.441,1.292,9.455-4.676,3.749-8.483,3.749-8.483l3.578,6.423s1-4.336-.655-7.177-3.483-2.327-3.483-2.327l-12.183,2.607-3.51,9.575Z"/>
          </g>
        </g>
      </g>
    </g>
    <g id="Group_248" data-name="Group 248">
      <path id="Path_170" data-name="Path 170" d="M75.958,311a.5.5,0,0,1-.1-.99,1.269,1.269,0,0,0,1.048-.735c.445-1.209-1.111-3.63-1.691-4.382a.5.5,0,0,1,.792-.611c.263.342,2.553,3.391,1.838,5.338a2.212,2.212,0,0,1-1.779,1.369A.536.536,0,0,1,75.958,311Z"/>
    </g>
    <g id="Group_249" data-name="Group 249">
      <path id="Path_171" data-name="Path 171" d="M60.976,311.361a.389.389,0,0,1-.29-.13l-3.347-3.775a.387.387,0,0,1,.579-.514l3.347,3.775a.386.386,0,0,1-.033.546A.379.379,0,0,1,60.976,311.361Z"/>
    </g>
    <g id="Group_250" data-name="Group 250">
      <path id="Path_172" data-name="Path 172" d="M57.342,310.265a.387.387,0,0,1-.045-.771l2.4-.288a.383.383,0,0,1,.43.338.387.387,0,0,1-.338.43l-2.4.288Z"/>
    </g>
    <g id="Group_251" data-name="Group 251">
      <path id="Path_173" data-name="Path 173" d="M78.767,300.652a.457.457,0,0,1-.1-.011l-2.249-.471a.5.5,0,0,1-.387-.592.493.493,0,0,1,.592-.387l2.249.471a.5.5,0,0,1-.1.99Z"/>
    </g>
    <g id="Group_252" data-name="Group 252">
      <path id="Path_174" data-name="Path 174" d="M69.311,301.818a.5.5,0,0,1-.211-.953l3.774-1.753a.5.5,0,1,1,.421.906l-3.774,1.753A.479.479,0,0,1,69.311,301.818Z"/>
    </g>
    <g id="Group_253" data-name="Group 253">
      <path id="Path_175" data-name="Path 175" d="M78.588,305.883a.5.5,0,0,1-.482-.369l-.628-2.324a.5.5,0,0,1,.107-.46l.736-.84a.5.5,0,1,1,.752.658l-.559.639.558,2.066a.5.5,0,0,1-.353.613A.542.542,0,0,1,78.588,305.883Z"/>
    </g>
    <g id="Group_254" data-name="Group 254">
      <path id="Path_176" data-name="Path 176" d="M71.623,306.281a.5.5,0,0,1-.482-.369l-.628-2.323a.5.5,0,0,1,.114-.469l1.015-1.106a.5.5,0,0,1,.738.676l-.829.9.556,2.058a.5.5,0,0,1-.352.613A.547.547,0,0,1,71.623,306.281Z"/>
    </g>
    <g id="Group_255" data-name="Group 255">
      <path id="Path_177" data-name="Path 177" d="M67.11,366.285H30.239a6.173,6.173,0,0,1-1.264-.133,80.129,80.129,0,0,1,6.945-20.816c11.315-24.065,25.5-21.718,25.5-21.718C68,333.2,67.3,361.06,67.11,366.285Z" fill="#f7b369"/>
    </g>
    <g id="Group_256" data-name="Group 256">
      <path id="Path_178" data-name="Path 178" d="M70.188,329.513a19.067,19.067,0,0,1-7.311-1.786.387.387,0,1,1,.337-.7c.083.039,8.325,3.957,11.932-.276a.387.387,0,0,1,.589.5A6.977,6.977,0,0,1,70.188,329.513Z" fill="#fff"/>
    </g>
    <g id="Group_257" data-name="Group 257">
      <path id="Path_179" data-name="Path 179" d="M80.131,294.346s-6.675-6.861-14.589,3-3.08,16.146-3.08,16.146,4.765,9.469,13.966,5.963c6.222-2.37,4.106-23.827,4.106-23.827s6.049,17.331,1.345,29.017-16.841,10.646-22.578,8.6a20.158,20.158,0,0,1-8.952-6.666l3.13-3.476s-5.03-23.364,2.169-31.222C63.045,283.8,77,284.318,80.131,294.346Z" fill="#6876aa"/>
    </g>
    <g id="Group_258" data-name="Group 258">
      <path id="Path_180" data-name="Path 180" d="M74.094,314.582a3.122,3.122,0,0,1-2.5-1.329.5.5,0,0,1,.83-.556,2.076,2.076,0,0,0,2.414.749.5.5,0,0,1,.337.942A3.219,3.219,0,0,1,74.094,314.582Z"/>
    </g>
    <g id="Group_259" data-name="Group 259">
      <path id="Path_181" data-name="Path 181" d="M81.539,321.615l5.232,4.687s-2.427,6.506-13.068,6.94S81.539,321.615,81.539,321.615Z" fill="#6876aa"/>
    </g>
    <g id="Group_260" data-name="Group 260">
      <path id="Path_182" data-name="Path 182" d="M74.525,332.894a.5.5,0,0,1-.2-.96c.053-.022,5.295-2.315,7.08-7.456a.5.5,0,1,1,.944.328c-1.933,5.568-7.4,7.949-7.632,8.048A.5.5,0,0,1,74.525,332.894Z" fill="#40507f"/>
    </g>
    <g id="Group_261" data-name="Group 261">
      <path id="Path_183" data-name="Path 183" d="M71.98,329.993a29.888,29.888,0,0,1-18.837-6.523.5.5,0,0,1,.675-.738,29.421,29.421,0,0,0,25.641,5.347.5.5,0,1,1,.236.97A32.551,32.551,0,0,1,71.98,329.993Z" fill="#40507f"/>
    </g>
    <g id="Group_262" data-name="Group 262">
      <path id="Path_184" data-name="Path 184" d="M76.248,329.416c-12.227,0-22.685-13.344-23.163-13.963a.5.5,0,0,1,.791-.611c.124.16,12.569,16.029,25.6,13.233a.5.5,0,1,1,.211.977A16.2,16.2,0,0,1,76.248,329.416Z" fill="#40507f"/>
    </g>
  </g>
</svg>
