<svg xmlns="http://www.w3.org/2000/svg" width="93.09" height="93.09" viewBox="0 0 93.09 93.09">
  <g id="Group_433" data-name="Group 433" transform="translate(-21.6 -31.9)">
    <g id="Group_406" data-name="Group 406">
      <path id="Path_282" data-name="Path 282" d="M114.69,38.44v80a6.554,6.554,0,0,1-4.32,6.16,5.161,5.161,0,0,1-.67.2,6.524,6.524,0,0,1-1,.17c-.18.01-.37.02-.55.02h-80a6.3,6.3,0,0,1-2-.32,2.842,2.842,0,0,1-.49-.17,6.743,6.743,0,0,1-.89-.45,6.536,6.536,0,0,1-3.17-5.61v-80a6.545,6.545,0,0,1,6.55-6.54h80A6.542,6.542,0,0,1,114.69,38.44Z" fill="#6cca7b"/>
    </g>
    <g id="Group_407" data-name="Group 407">
      <path id="Path_283" data-name="Path 283" d="M97.66,124.99H28.84c1.03-10.4,6.75-27.46,11.47-32.79,4.82-5.45,16.43-9.13,28.33-8.74,0,0,16.21-.07,22.96,8.22C94.39,95.1,97.21,111.79,97.66,124.99Z" fill="#92b4ea"/>
    </g>
    <g id="Group_408" data-name="Group 408">
      <path id="Path_284" data-name="Path 284" d="M109.7,124.8a6.524,6.524,0,0,1-1,.17c-.18.01-.37.02-.55.02H84.63l-3.67-7.84,11.4-24.22Z" fill="#92b4ea"/>
    </g>
    <g id="Group_412" data-name="Group 412">
      <g id="Group_411" data-name="Group 411">
        <g id="Group_410" data-name="Group 410">
          <g id="Group_409" data-name="Group 409">
            <path id="Path_285" data-name="Path 285" d="M59.754,75.023,59,84.377s.637,2.837,6.757,3.837A7.961,7.961,0,0,0,72.8,86.208l-.078-2.019-.209-5.252-10.926-3.35Z" fill="#f48462"/>
          </g>
        </g>
      </g>
    </g>
    <g id="Group_416" data-name="Group 416">
      <g id="Group_415" data-name="Group 415">
        <g id="Group_414" data-name="Group 414">
          <g id="Group_413" data-name="Group 413">
            <path id="Path_286" data-name="Path 286" d="M61.587,75.588a3.449,3.449,0,0,0,.224,1.041c1.93,5.452,8.28,7.109,10.911,7.561l-.209-5.252Z"/>
          </g>
        </g>
      </g>
    </g>
    <g id="Group_420" data-name="Group 420">
      <g id="Group_419" data-name="Group 419">
        <g id="Group_418" data-name="Group 418">
          <g id="Group_417" data-name="Group 417">
            <path id="Path_287" data-name="Path 287" d="M76.809,55.124s4.455,13.652,1.681,20.811-9.367,5.352-13.24,3.541a13.342,13.342,0,0,1-5.5-4.451,5.682,5.682,0,0,1-6.039-2.819c-2.169-3.727-.239-7.579,1.99-8.289S60.326,65,60.326,65L58.7,61S68.962,42.466,76.809,55.124Z" fill="#f48462"/>
          </g>
        </g>
      </g>
    </g>
    <g id="Group_421" data-name="Group 421">
      <path id="Path_288" data-name="Path 288" d="M74.637,71.791a.505.505,0,0,1-.2-.04.5.5,0,0,1-.264-.656c.976-2.289-.536-5.052-.551-5.08a.5.5,0,0,1,.873-.488c.073.13,1.769,3.214.6,5.96A.5.5,0,0,1,74.637,71.791Z"/>
    </g>
    <g id="Group_422" data-name="Group 422">
      <path id="Path_289" data-name="Path 289" d="M59.178,71.061a.4.4,0,0,1-.316-.156L55.7,66.769a.4.4,0,0,1,.632-.484l3.166,4.136a.4.4,0,0,1-.316.64Z"/>
    </g>
    <g id="Group_423" data-name="Group 423">
      <path id="Path_290" data-name="Path 290" d="M55.518,69.662a.4.4,0,0,1-.019-.795l2.5-.118a.384.384,0,0,1,.417.379.4.4,0,0,1-.378.416l-2.5.118Z"/>
    </g>
    <g id="Group_424" data-name="Group 424">
      <path id="Path_291" data-name="Path 291" d="M69.212,66.294a.5.5,0,0,1-.5-.488l-.059-2.471a.5.5,0,1,1,1-.024l.059,2.471a.5.5,0,0,1-.488.512Z"/>
    </g>
    <g id="Group_425" data-name="Group 425">
      <path id="Path_292" data-name="Path 292" d="M76.512,66.463a.5.5,0,0,1-.5-.479l-.106-2.47a.5.5,0,0,1,.478-.521.494.494,0,0,1,.521.478l.106,2.47a.5.5,0,0,1-.478.521Z"/>
    </g>
    <g id="Group_426" data-name="Group 426">
      <path id="Path_293" data-name="Path 293" d="M68,61.658a.5.5,0,0,1-.41-.785c1.146-1.652,3.321-.9,3.414-.864a.5.5,0,0,1-.335.942c-.063-.022-1.549-.529-2.256.491A.5.5,0,0,1,68,61.658Z"/>
    </g>
    <g id="Group_427" data-name="Group 427">
      <path id="Path_294" data-name="Path 294" d="M77.544,61.646a.5.5,0,0,1-.426-.237,1.775,1.775,0,0,0-.96-.752.993.993,0,0,0-.779.209.5.5,0,1,1-.576-.818,1.978,1.978,0,0,1,1.562-.37,2.751,2.751,0,0,1,1.605,1.208.5.5,0,0,1-.166.688A.506.506,0,0,1,77.544,61.646Z"/>
    </g>
    <g id="Group_428" data-name="Group 428">
      <path id="Path_295" data-name="Path 295" d="M76.809,55.125l-.844-1.233a10.056,10.056,0,0,1-3.344,1.2,34.2,34.2,0,0,1-7.705.552s.7,1.015.538,4.667-3.961,5.7-3.961,5.7a11.952,11.952,0,0,0-3.41-1.758,7.288,7.288,0,0,0-1.113-.231,3.055,3.055,0,0,0-3.009,1.138s-5.045-8.041.792-13.819c4.093-4.034,9.573-3.776,12.477-3.255a16.373,16.373,0,0,1,1.923.464l.1.029s8.739-2.072,10.192-.777S77.857,55.179,76.809,55.125Z"/>
    </g>
    <g id="Group_429" data-name="Group 429">
      <path id="Path_296" data-name="Path 296" d="M71.754,75.536a2.836,2.836,0,0,1-1.086-.214,1.8,1.8,0,0,1-1.037-.993,2.314,2.314,0,0,1,.077-1.671.5.5,0,0,1,.678-.242l3.263,1.622a.5.5,0,0,1,.08.846A3.552,3.552,0,0,1,71.754,75.536Zm-1.248-1.943a.9.9,0,0,0,.057.371.808.808,0,0,0,.484.432,1.953,1.953,0,0,0,1.228.076Z"/>
    </g>
    <g id="Group_430" data-name="Group 430">
      <path id="Path_297" data-name="Path 297" d="M73.75,124.99H69.08L65.89,88.67l3.41.89Z" fill="#a2c5f9"/>
    </g>
    <g id="Group_431" data-name="Group 431">
      <path id="Path_298" data-name="Path 298" d="M72.946,83.894s3.972,11.044,2.813,10.88-8.3-5.845-8.3-5.845-4.674,6.428-6.3,6.547-2.163-11.5-2.163-11.5,1.233,3.287,7.318,3.844S72.946,83.894,72.946,83.894Z" fill="#e6f4ff"/>
    </g>
    <g id="Group_432" data-name="Group 432">
      <path id="Path_299" data-name="Path 299" d="M92.383,124a.5.5,0,0,1-.494-.426l-2.5-16.67a.5.5,0,1,1,.989-.149l2.5,16.67a.5.5,0,0,1-.42.569A.493.493,0,0,1,92.383,124Z" fill="#e6f4ff"/>
    </g>
  </g>
</svg>
